<svg width="197" height="71" viewBox="0 0 197 71" fill="none" xmlns="http://www.w3.org/2000/svg">
<g filter="url(#filter0_d_1_3063)">
<rect x="16" y="4" width="165" height="39" rx="7" fill="#009F79"/>
<rect x="17" y="5" width="163" height="37" rx="6" stroke="white" stroke-width="2"/>
</g>
<rect x="24" y="13" width="20" height="20" rx="9.99999" fill="#1E735E"/>
<path d="M30 27.63H39V18.63H30V27.63Z" fill="#04153C"/>
<path d="M52.659 26C52.628 26 52.6033 25.9907 52.5847 25.9722C52.5661 25.9474 52.5569 25.9196 52.5569 25.8886L52.6775 20.0323C52.6775 19.958 52.7146 19.9209 52.7889 19.9209H53.9861C54.0418 19.9209 54.0821 19.9487 54.1068 20.0044L55.6567 23.3827L57.1788 20.0044C57.2098 19.9487 57.2531 19.9209 57.3088 19.9209H58.506C58.5741 19.9209 58.6081 19.958 58.6081 20.0323L58.7381 25.8886C58.7381 25.9196 58.7288 25.9474 58.7102 25.9722C58.6917 25.9907 58.6638 26 58.6267 26H57.7543C57.68 26 57.6429 25.9629 57.6429 25.8886L57.5686 22.8908C57.5625 22.6433 57.5655 22.3959 57.5779 22.1484C57.5903 21.8947 57.5996 21.6472 57.6058 21.4059H57.5779C57.4789 21.6472 57.3737 21.8916 57.2624 22.1391C57.1572 22.3804 57.0458 22.6186 56.9282 22.8537L55.7867 25.2575C55.7619 25.307 55.7186 25.3318 55.6567 25.3318H55.6196C55.5639 25.3318 55.5237 25.307 55.499 25.2575L54.3481 22.8259C54.2306 22.5969 54.1192 22.3618 54.014 22.1205C53.9088 21.873 53.8098 21.6348 53.717 21.4059H53.6892C53.7015 21.641 53.7108 21.8854 53.717 22.1391C53.7232 22.3866 53.7232 22.631 53.717 22.8723L53.6427 25.8886C53.6427 25.9629 53.6087 26 53.5407 26H52.659ZM61.3104 26.1114C60.902 26.1114 60.5926 25.9845 60.3823 25.7308C60.1719 25.471 60.0667 25.0874 60.0667 24.58V21.5451C60.0667 21.4708 60.1007 21.4337 60.1688 21.4337H61.0505C61.1247 21.4337 61.1619 21.4708 61.1619 21.5451V24.4037C61.1619 24.6635 61.2052 24.8553 61.2918 24.9791C61.3846 25.1028 61.5269 25.1647 61.7187 25.1647C61.9229 25.1647 62.1271 25.0997 62.3313 24.9698C62.5416 24.8337 62.7768 24.6326 63.0366 24.3665L63.0738 25.1833C62.8943 25.3627 62.7118 25.5236 62.5262 25.6659C62.3467 25.802 62.1549 25.9103 61.9508 25.9907C61.7528 26.0712 61.5393 26.1114 61.3104 26.1114ZM63.148 26C63.1109 26 63.08 25.9938 63.0552 25.9814C63.0366 25.9629 63.0243 25.935 63.0181 25.8979C62.9995 25.7865 62.981 25.669 62.9624 25.5452C62.95 25.4215 62.9407 25.2977 62.9345 25.174L62.851 24.7007V21.5451C62.851 21.4708 62.8881 21.4337 62.9624 21.4337H63.8441C63.9122 21.4337 63.9462 21.4708 63.9462 21.5451V24.8399C63.9462 25.0193 63.9493 25.1987 63.9555 25.3782C63.9678 25.5514 63.9864 25.7216 64.0112 25.8886C64.0235 25.9629 63.9864 26 63.8998 26H63.148ZM66.9059 26.1114C66.2934 26.1114 65.8417 25.9907 65.5509 25.7494C65.2662 25.5081 65.1332 25.1338 65.1518 24.6264C65.1518 24.5583 65.1889 24.5243 65.2632 24.5243H66.0984C66.1603 24.5243 66.1913 24.5583 66.1913 24.6264C66.1913 24.8491 66.25 25.0131 66.3676 25.1183C66.4852 25.2235 66.6646 25.2761 66.9059 25.2761C67.1596 25.2761 67.3483 25.2359 67.472 25.1554C67.5958 25.075 67.6577 24.9512 67.6577 24.7842C67.6577 24.6666 67.6175 24.5676 67.537 24.4872C67.4566 24.4006 67.3266 24.3201 67.1472 24.2459L66.0892 23.8004C65.7674 23.6643 65.5354 23.5034 65.3931 23.3178C65.257 23.1321 65.1889 22.8908 65.1889 22.5938C65.1889 22.1731 65.325 21.8575 65.5973 21.6472C65.8757 21.4306 66.3026 21.3223 66.8781 21.3223C67.4659 21.3223 67.9083 21.4337 68.2053 21.6565C68.5022 21.8792 68.6507 22.204 68.6507 22.631C68.6507 22.699 68.6136 22.7331 68.5394 22.7331H67.7041C67.6731 22.7331 67.6453 22.7238 67.6205 22.7052C67.602 22.6805 67.5927 22.6403 67.5927 22.5846C67.5927 22.4484 67.5339 22.3433 67.4164 22.269C67.2988 22.1886 67.1348 22.1484 66.9245 22.1484C66.7079 22.1484 66.547 22.1855 66.4418 22.2597C66.3367 22.334 66.2841 22.4454 66.2841 22.5938C66.2841 22.7052 66.315 22.7918 66.3769 22.8537C66.4449 22.9156 66.5749 22.9867 66.7667 23.0672L67.8247 23.5127C68.1527 23.6488 68.3878 23.8128 68.5301 24.0046C68.6786 24.1902 68.7528 24.4346 68.7528 24.7378C68.7528 25.1895 68.5951 25.5329 68.2795 25.768C67.9639 25.9969 67.5061 26.1114 66.9059 26.1114ZM71.6827 26.1114C71.3238 26.1114 71.0361 26.0557 70.8195 25.9443C70.6092 25.8329 70.4545 25.6597 70.3555 25.4246C70.2627 25.1895 70.2163 24.8894 70.2163 24.5243V22.3525H69.5388C69.4645 22.3525 69.4274 22.3154 69.4274 22.2412V21.5451C69.4274 21.4708 69.4645 21.4337 69.5388 21.4337H70.2534L70.374 20.32C70.3864 20.2519 70.4266 20.2179 70.4947 20.2179H71.2001C71.2743 20.2179 71.3114 20.255 71.3114 20.3293V21.4337H72.5829C72.6572 21.4337 72.6943 21.4708 72.6943 21.5451V22.2412C72.6943 22.3154 72.6572 22.3525 72.5829 22.3525H71.3114V24.4686C71.3114 24.7161 71.3578 24.8956 71.4507 25.0069C71.5435 25.1183 71.6981 25.174 71.9147 25.174C72.0261 25.174 72.1375 25.1616 72.2488 25.1369C72.3664 25.1121 72.4747 25.0781 72.5737 25.0348C72.6108 25.0224 72.6417 25.0255 72.6665 25.044C72.6912 25.0564 72.7036 25.0812 72.7036 25.1183V25.8329C72.7036 25.8948 72.6758 25.935 72.6201 25.9536C72.4963 26.0031 72.354 26.0402 72.1931 26.065C72.0385 26.0959 71.8683 26.1114 71.6827 26.1114ZM75.9024 26C75.8343 26 75.8003 25.9629 75.8003 25.8886V21.5451C75.8003 21.4708 75.8343 21.4337 75.9024 21.4337H76.7841C76.8583 21.4337 76.8954 21.4708 76.8954 21.5451V25.8886C76.8954 25.9629 76.8583 26 76.7841 26H75.9024ZM76.3479 20.7748C76.1375 20.7748 75.9766 20.7191 75.8653 20.6077C75.7601 20.4963 75.7075 20.354 75.7075 20.1808V20.0416C75.7075 19.8621 75.7601 19.7198 75.8653 19.6146C75.9766 19.5033 76.1375 19.4476 76.3479 19.4476C76.5582 19.4476 76.716 19.5033 76.8212 19.6146C76.9264 19.7198 76.979 19.8621 76.979 20.0416V20.1808C76.979 20.354 76.9264 20.4963 76.8212 20.6077C76.716 20.7191 76.5582 20.7748 76.3479 20.7748ZM81.2772 26C81.203 26 81.1658 25.9629 81.1658 25.8886V23.0301C81.1658 22.7702 81.1132 22.5784 81.0081 22.4546C80.9029 22.3309 80.742 22.269 80.5254 22.269C80.3089 22.269 80.0954 22.334 79.885 22.4639C79.6809 22.5877 79.4457 22.7826 79.1797 23.0486L79.1426 22.2412C79.322 22.0494 79.5014 21.8854 79.6809 21.7493C79.8665 21.6131 80.0583 21.508 80.2563 21.4337C80.4543 21.3595 80.6708 21.3223 80.906 21.3223C81.3515 21.3223 81.6887 21.4492 81.9176 21.7029C82.1465 21.9504 82.261 22.334 82.261 22.8537V25.8886C82.261 25.9629 82.2239 26 82.1496 26H81.2772ZM78.3629 26C78.2949 26 78.2609 25.9629 78.2609 25.8886V22.5938C78.2609 22.4206 78.2516 22.2381 78.233 22.0463C78.2206 21.8545 78.2083 21.6936 78.1959 21.5636C78.1835 21.477 78.2206 21.4337 78.3073 21.4337H79.0869C79.124 21.4337 79.1518 21.4399 79.1704 21.4523C79.189 21.4647 79.2013 21.4925 79.2075 21.5358C79.2199 21.5853 79.2323 21.6596 79.2446 21.7586C79.257 21.8514 79.2694 21.9504 79.2818 22.0555C79.2941 22.1607 79.3003 22.2535 79.3003 22.334L79.356 22.7052V25.8886C79.356 25.9629 79.3189 26 79.2446 26H78.3629ZM85.5337 26.1114C84.8778 26.1114 84.3735 25.9505 84.0208 25.6288C83.6744 25.307 83.5011 24.843 83.5011 24.2366V23.1878C83.5011 22.5877 83.6774 22.1267 84.0301 21.805C84.3828 21.4832 84.8871 21.3223 85.5429 21.3223C85.9575 21.3223 86.3071 21.3904 86.5917 21.5265C86.8763 21.6565 87.0929 21.8359 87.2414 22.0648C87.3899 22.2876 87.4579 22.5443 87.4456 22.8352C87.4394 22.9651 87.4022 23.0301 87.3342 23.0301H86.4989C86.468 23.0301 86.4432 23.0177 86.4246 22.9929C86.4061 22.9682 86.3968 22.9311 86.3968 22.8816C86.3968 22.6836 86.3195 22.532 86.1648 22.4268C86.0163 22.3154 85.8121 22.2597 85.5522 22.2597C85.2305 22.2597 84.9892 22.3433 84.8283 22.5103C84.6736 22.6712 84.5963 22.9342 84.5963 23.2992V24.1345C84.5963 24.4934 84.6736 24.7563 84.8283 24.9234C84.9892 25.0843 85.2274 25.1647 85.5429 25.1647C85.8152 25.1647 86.0225 25.109 86.1648 24.9976C86.3133 24.8801 86.3875 24.7316 86.3875 24.5522C86.3875 24.4593 86.4215 24.4129 86.4896 24.4129H87.3249C87.393 24.4129 87.4301 24.447 87.4363 24.515C87.4487 24.9976 87.294 25.3844 86.9722 25.6752C86.6505 25.966 86.171 26.1114 85.5337 26.1114ZM88.7947 26C88.7267 26 88.6926 25.9629 88.6926 25.8886V19.7724C88.6926 19.6982 88.7267 19.661 88.7947 19.661H89.6764C89.7507 19.661 89.7878 19.6982 89.7878 19.7724V25.8886C89.7878 25.9629 89.7507 26 89.6764 26H88.7947ZM92.3969 26.1114C91.9885 26.1114 91.6791 25.9845 91.4688 25.7308C91.2584 25.471 91.1532 25.0874 91.1532 24.58V21.5451C91.1532 21.4708 91.1872 21.4337 91.2553 21.4337H92.137C92.2112 21.4337 92.2484 21.4708 92.2484 21.5451V24.4037C92.2484 24.6635 92.2917 24.8553 92.3783 24.9791C92.4711 25.1028 92.6134 25.1647 92.8052 25.1647C93.0094 25.1647 93.2136 25.0997 93.4178 24.9698C93.6282 24.8337 93.8633 24.6326 94.1231 24.3665L94.1603 25.1833C93.9808 25.3627 93.7983 25.5236 93.6127 25.6659C93.4332 25.802 93.2414 25.9103 93.0373 25.9907C92.8393 26.0712 92.6258 26.1114 92.3969 26.1114ZM94.2345 26C94.1974 26 94.1665 25.9938 94.1417 25.9814C94.1231 25.9629 94.1108 25.935 94.1046 25.8979C94.086 25.7865 94.0675 25.669 94.0489 25.5452C94.0365 25.4215 94.0272 25.2977 94.0211 25.174L93.9375 24.7007V21.5451C93.9375 21.4708 93.9746 21.4337 94.0489 21.4337H94.9306C94.9987 21.4337 95.0327 21.4708 95.0327 21.5451V24.8399C95.0327 25.0193 95.0358 25.1987 95.042 25.3782C95.0543 25.5514 95.0729 25.7216 95.0977 25.8886C95.11 25.9629 95.0729 26 94.9863 26H94.2345ZM97.6397 26.1114C97.2066 26.1114 96.8756 25.9753 96.6466 25.703C96.4177 25.4308 96.3032 25.0162 96.3032 24.4593V23.1971C96.3032 22.5722 96.4487 22.105 96.7395 21.7957C97.0303 21.4801 97.4355 21.3223 97.9553 21.3223C98.178 21.3223 98.4193 21.3533 98.6792 21.4152C98.9391 21.4708 99.1463 21.5482 99.301 21.6472L99.3382 22.5196C99.1649 22.4268 98.9793 22.3587 98.7813 22.3154C98.5833 22.2659 98.407 22.2412 98.2523 22.2412C97.9677 22.2412 97.7542 22.3309 97.6119 22.5103C97.4696 22.6898 97.3984 22.9527 97.3984 23.2992V24.348C97.3984 24.6202 97.451 24.8244 97.5562 24.9605C97.6614 25.0966 97.8222 25.1647 98.0388 25.1647C98.1811 25.1647 98.3172 25.1369 98.4472 25.0812C98.5833 25.0255 98.7256 24.942 98.8741 24.8306C99.0226 24.713 99.1897 24.5614 99.3753 24.3758L99.4124 25.1833C99.2268 25.3627 99.0412 25.5236 98.8555 25.6659C98.6761 25.8082 98.4874 25.9196 98.2894 26C98.0914 26.0742 97.8748 26.1114 97.6397 26.1114ZM99.4681 26C99.4372 26 99.4093 25.9938 99.3846 25.9814C99.366 25.9629 99.3536 25.935 99.3474 25.8979C99.3289 25.7989 99.3103 25.6813 99.2918 25.5452C99.2794 25.4091 99.2732 25.2915 99.2732 25.1925L99.1897 24.7007V19.7724C99.1897 19.6982 99.2268 19.661 99.301 19.661H100.173C100.248 19.661 100.285 19.6982 100.285 19.7724V24.8956C100.285 25.0007 100.288 25.1152 100.294 25.239C100.3 25.3565 100.306 25.471 100.313 25.5824C100.325 25.6937 100.334 25.7865 100.341 25.8608C100.359 25.9536 100.325 26 100.238 26H99.4681ZM103.542 26.1114C102.873 26.1114 102.372 25.966 102.038 25.6752C101.704 25.3782 101.537 24.9389 101.537 24.3573V23.2064C101.537 22.5877 101.701 22.1205 102.029 21.805C102.363 21.4832 102.864 21.3223 103.532 21.3223C104.188 21.3223 104.683 21.477 105.017 21.7864C105.351 22.0958 105.518 22.5474 105.518 23.1414V23.8654C105.518 23.9396 105.481 23.9767 105.407 23.9767H102.623V24.2552C102.623 24.5955 102.694 24.8461 102.836 25.0069C102.985 25.1616 103.223 25.239 103.551 25.239C103.805 25.239 103.999 25.1987 104.136 25.1183C104.278 25.0379 104.349 24.9172 104.349 24.7563C104.349 24.6821 104.386 24.645 104.46 24.645H105.314C105.382 24.645 105.419 24.679 105.426 24.7471C105.444 25.1925 105.289 25.5329 104.962 25.768C104.64 25.9969 104.166 26.1114 103.542 26.1114ZM102.623 23.2342H104.442V23.1878C104.442 22.8475 104.368 22.5969 104.219 22.4361C104.071 22.2752 103.845 22.1948 103.542 22.1948C103.226 22.1948 102.994 22.2783 102.845 22.4454C102.697 22.6062 102.623 22.8568 102.623 23.1971V23.2342ZM110.636 26.1114C110.277 26.1114 109.989 26.0557 109.773 25.9443C109.562 25.8329 109.408 25.6597 109.309 25.4246C109.216 25.1895 109.17 24.8894 109.17 24.5243V22.3525H108.492C108.418 22.3525 108.381 22.3154 108.381 22.2412V21.5451C108.381 21.4708 108.418 21.4337 108.492 21.4337H109.207L109.327 20.32C109.34 20.2519 109.38 20.2179 109.448 20.2179H110.153C110.228 20.2179 110.265 20.255 110.265 20.3293V21.4337H111.536C111.61 21.4337 111.648 21.4708 111.648 21.5451V22.2412C111.648 22.3154 111.61 22.3525 111.536 22.3525H110.265V24.4686C110.265 24.7161 110.311 24.8956 110.404 25.0069C110.497 25.1183 110.651 25.174 110.868 25.174C110.979 25.174 111.091 25.1616 111.202 25.1369C111.32 25.1121 111.428 25.0781 111.527 25.0348C111.564 25.0224 111.595 25.0255 111.62 25.044C111.645 25.0564 111.657 25.0812 111.657 25.1183V25.8329C111.657 25.8948 111.629 25.935 111.573 25.9536C111.45 26.0031 111.307 26.0402 111.146 26.065C110.992 26.0959 110.822 26.1114 110.636 26.1114ZM113.926 26.1114C113.518 26.1114 113.209 25.9845 112.998 25.7308C112.788 25.471 112.683 25.0874 112.683 24.58V21.5451C112.683 21.4708 112.717 21.4337 112.785 21.4337H113.667C113.741 21.4337 113.778 21.4708 113.778 21.5451V24.4037C113.778 24.6635 113.821 24.8553 113.908 24.9791C114.001 25.1028 114.143 25.1647 114.335 25.1647C114.539 25.1647 114.743 25.0997 114.947 24.9698C115.158 24.8337 115.393 24.6326 115.653 24.3665L115.69 25.1833C115.51 25.3627 115.328 25.5236 115.142 25.6659C114.963 25.802 114.771 25.9103 114.567 25.9907C114.369 26.0712 114.155 26.1114 113.926 26.1114ZM115.764 26C115.727 26 115.696 25.9938 115.671 25.9814C115.653 25.9629 115.64 25.935 115.634 25.8979C115.616 25.7865 115.597 25.669 115.578 25.5452C115.566 25.4215 115.557 25.2977 115.551 25.174L115.467 24.7007V21.5451C115.467 21.4708 115.504 21.4337 115.578 21.4337H116.46C116.528 21.4337 116.562 21.4708 116.562 21.5451V24.8399C116.562 25.0193 116.565 25.1987 116.572 25.3782C116.584 25.5514 116.602 25.7216 116.627 25.8886C116.64 25.9629 116.602 26 116.516 26H115.764ZM118.037 26C117.969 26 117.935 25.9629 117.935 25.8886V22.5753C117.935 22.3897 117.929 22.2133 117.916 22.0463C117.91 21.8792 117.895 21.7152 117.87 21.5544C117.858 21.4739 117.895 21.4337 117.981 21.4337H118.761C118.798 21.4337 118.826 21.4399 118.844 21.4523C118.863 21.4647 118.875 21.4894 118.882 21.5265C118.906 21.6379 118.925 21.7647 118.937 21.907C118.95 22.0494 118.956 22.1762 118.956 22.2876L119.03 22.8259V25.8886C119.03 25.9629 118.993 26 118.919 26H118.037ZM118.928 23.2342L118.872 22.2876C119.002 22.102 119.148 21.938 119.308 21.7957C119.476 21.6472 119.643 21.5327 119.81 21.4523C119.983 21.3657 120.141 21.3223 120.283 21.3223C120.388 21.3223 120.472 21.3316 120.534 21.3502C120.565 21.3626 120.586 21.378 120.599 21.3966C120.611 21.4152 120.617 21.4399 120.617 21.4708C120.629 21.6193 120.633 21.7802 120.626 21.9535C120.626 22.1205 120.617 22.2783 120.599 22.4268C120.592 22.4639 120.577 22.4918 120.552 22.5103C120.534 22.5227 120.503 22.5258 120.459 22.5196C120.422 22.5134 120.376 22.5072 120.32 22.501C120.264 22.4948 120.206 22.4918 120.144 22.4918C120.008 22.4918 119.865 22.5227 119.717 22.5846C119.575 22.6403 119.435 22.7238 119.299 22.8352C119.169 22.9465 119.046 23.0796 118.928 23.2342ZM121.612 26C121.544 26 121.51 25.9629 121.51 25.8886V19.7724C121.51 19.6982 121.544 19.661 121.612 19.661H122.494C122.568 19.661 122.605 19.6982 122.605 19.7724V22.037C122.605 22.1793 122.602 22.3216 122.596 22.4639C122.596 22.6062 122.593 22.7485 122.587 22.8908C122.587 23.0332 122.584 23.1755 122.578 23.3178H122.596C122.701 23.1816 122.807 23.0455 122.912 22.9094C123.023 22.7733 123.134 22.6403 123.246 22.5103L124.137 21.4894C124.162 21.4523 124.205 21.4337 124.267 21.4337H125.371C125.427 21.4337 125.458 21.4461 125.464 21.4708C125.476 21.4956 125.467 21.5265 125.436 21.5636L123.895 23.2621L125.566 25.8701C125.591 25.9072 125.597 25.9381 125.585 25.9629C125.572 25.9876 125.541 26 125.492 26H124.462C124.406 26 124.363 25.9753 124.332 25.9258L123.134 24.0324L122.605 24.5893V25.8886C122.605 25.9629 122.568 26 122.494 26H121.612ZM128.193 26.1114C127.525 26.1114 127.024 25.966 126.69 25.6752C126.356 25.3782 126.189 24.9389 126.189 24.3573V23.2064C126.189 22.5877 126.353 22.1205 126.68 21.805C127.015 21.4832 127.516 21.3223 128.184 21.3223C128.84 21.3223 129.335 21.477 129.669 21.7864C130.003 22.0958 130.17 22.5474 130.17 23.1414V23.8654C130.17 23.9396 130.133 23.9767 130.059 23.9767H127.274V24.2552C127.274 24.5955 127.346 24.8461 127.488 25.0069C127.636 25.1616 127.875 25.239 128.203 25.239C128.456 25.239 128.651 25.1987 128.787 25.1183C128.93 25.0379 129.001 24.9172 129.001 24.7563C129.001 24.6821 129.038 24.645 129.112 24.645H129.966C130.034 24.645 130.071 24.679 130.077 24.7471C130.096 25.1925 129.941 25.5329 129.613 25.768C129.292 25.9969 128.818 26.1114 128.193 26.1114ZM127.274 23.2342H129.094V23.1878C129.094 22.8475 129.019 22.5969 128.871 22.4361C128.722 22.2752 128.496 22.1948 128.193 22.1948C127.878 22.1948 127.646 22.2783 127.497 22.4454C127.349 22.6062 127.274 22.8568 127.274 23.1971V23.2342ZM132.068 27.717C131.981 27.717 131.957 27.6737 131.994 27.5871L132.616 25.9629L130.917 21.5636C130.886 21.477 130.914 21.4337 131.001 21.4337H131.957C132.018 21.4337 132.059 21.4647 132.077 21.5265L132.746 23.4291C132.814 23.621 132.879 23.8251 132.94 24.0417C133.002 24.2521 133.061 24.4655 133.117 24.6821H133.135C133.197 24.4655 133.259 24.2521 133.321 24.0417C133.383 23.8313 133.448 23.6271 133.516 23.4291L134.184 21.5265C134.203 21.4647 134.243 21.4337 134.305 21.4337H135.233C135.27 21.4337 135.298 21.4461 135.316 21.4708C135.335 21.4956 135.338 21.5265 135.326 21.5636L133.052 27.6335C133.027 27.6892 132.987 27.717 132.931 27.717H132.068Z" fill="white"/>
<defs>
<filter id="filter0_d_1_3063" x="0" y="0" width="197" height="71" filterUnits="userSpaceOnUse" color-interpolation-filters="sRGB">
<feFlood flood-opacity="0" result="BackgroundImageFix"/>
<feColorMatrix in="SourceAlpha" type="matrix" values="0 0 0 0 0 0 0 0 0 0 0 0 0 0 0 0 0 0 127 0" result="hardAlpha"/>
<feOffset dy="12"/>
<feGaussianBlur stdDeviation="8"/>
<feComposite in2="hardAlpha" operator="out"/>
<feColorMatrix type="matrix" values="0 0 0 0 0 0 0 0 0 0 0 0 0 0 0 0 0 0 0.16 0"/>
<feBlend mode="normal" in2="BackgroundImageFix" result="effect1_dropShadow_1_3063"/>
<feBlend mode="normal" in="SourceGraphic" in2="effect1_dropShadow_1_3063" result="shape"/>
</filter>
</defs>
</svg>
