<svg width="197" height="71" viewBox="0 0 197 71" fill="none" xmlns="http://www.w3.org/2000/svg">
<g filter="url(#filter0_d_1_3057)">
<rect x="16" y="4" width="165" height="39" rx="7" fill="#009F79"/>
<rect x="17" y="5" width="163" height="37" rx="6" stroke="white" stroke-width="2"/>
</g>
<rect x="25" y="13" width="20" height="20" rx="9.99999" fill="#1E735E"/>
<path d="M31 27.63H40V18.63H31V27.63Z" fill="#04153C"/>
<path d="M53.7889 26C53.7208 26 53.6868 25.9629 53.6868 25.8886V20.0323C53.6868 19.958 53.7208 19.9209 53.7889 19.9209H57.3435C57.4116 19.9209 57.4456 19.958 57.4456 20.0323V20.7933C57.4456 20.8676 57.4116 20.9047 57.3435 20.9047H54.8005V22.4546H57.1208C57.1889 22.4546 57.2229 22.4918 57.2229 22.566V23.2806C57.2229 23.3549 57.1889 23.392 57.1208 23.392H54.8005V25.0162H57.3435C57.4116 25.0162 57.4456 25.0533 57.4456 25.1276V25.8886C57.4456 25.9629 57.4116 26 57.3435 26H53.7889ZM58.3648 26C58.3215 26 58.2937 25.9876 58.2813 25.9629C58.2689 25.9319 58.2751 25.901 58.2999 25.8701L59.8591 23.6519L58.4019 21.5636C58.3772 21.5265 58.371 21.4956 58.3834 21.4708C58.4019 21.4461 58.4329 21.4337 58.4762 21.4337H59.4971C59.559 21.4337 59.6023 21.4554 59.627 21.4987L60.1375 22.2876C60.2056 22.3928 60.2736 22.5041 60.3417 22.6217C60.4097 22.7393 60.4747 22.8506 60.5366 22.9558H60.5459C60.6139 22.8382 60.6851 22.7207 60.7593 22.6031C60.8336 22.4856 60.9047 22.368 60.9728 22.2504L61.4647 21.508C61.4894 21.4585 61.5328 21.4337 61.5946 21.4337H62.5784C62.6217 21.4337 62.6496 21.4461 62.662 21.4708C62.6805 21.4956 62.6774 21.5265 62.6527 21.5636L61.1955 23.6333L62.7733 25.8701C62.7981 25.901 62.8043 25.9319 62.7919 25.9629C62.7795 25.9876 62.7517 26 62.7084 26H61.6782C61.6225 26 61.5792 25.9783 61.5482 25.935L61.0563 25.1925C60.9697 25.0564 60.8831 24.9172 60.7965 24.7749C60.7098 24.6326 60.6201 24.4903 60.5273 24.348H60.518C60.4376 24.4841 60.3541 24.6264 60.2674 24.7749C60.1808 24.9172 60.0942 25.0564 60.0076 25.1925L59.5157 25.935C59.5033 25.9598 59.4847 25.9783 59.46 25.9907C59.4414 25.9969 59.4167 26 59.3857 26H58.3648ZM65.3667 26.1114C64.7108 26.1114 64.2065 25.9505 63.8538 25.6288C63.5074 25.307 63.3341 24.843 63.3341 24.2366V23.1878C63.3341 22.5877 63.5104 22.1267 63.8631 21.805C64.2158 21.4832 64.7201 21.3223 65.3759 21.3223C65.7905 21.3223 66.1401 21.3904 66.4247 21.5265C66.7093 21.6565 66.9259 21.8359 67.0744 22.0648C67.2229 22.2876 67.2909 22.5443 67.2786 22.8352C67.2724 22.9651 67.2352 23.0301 67.1672 23.0301H66.3319C66.301 23.0301 66.2762 23.0177 66.2576 22.9929C66.2391 22.9682 66.2298 22.9311 66.2298 22.8816C66.2298 22.6836 66.1525 22.532 65.9978 22.4268C65.8493 22.3154 65.6451 22.2597 65.3852 22.2597C65.0635 22.2597 64.8222 22.3433 64.6613 22.5103C64.5066 22.6712 64.4293 22.9342 64.4293 23.2992V24.1345C64.4293 24.4934 64.5066 24.7563 64.6613 24.9234C64.8222 25.0843 65.0604 25.1647 65.3759 25.1647C65.6482 25.1647 65.8555 25.109 65.9978 24.9976C66.1463 24.8801 66.2205 24.7316 66.2205 24.5522C66.2205 24.4593 66.2545 24.4129 66.3226 24.4129H67.1579C67.226 24.4129 67.2631 24.447 67.2693 24.515C67.2817 24.9976 67.127 25.3844 66.8052 25.6752C66.4835 25.966 66.004 26.1114 65.3667 26.1114ZM68.6277 26C68.5597 26 68.5256 25.9629 68.5256 25.8886V19.7724C68.5256 19.6982 68.5597 19.661 68.6277 19.661H69.5094C69.5837 19.661 69.6208 19.6982 69.6208 19.7724V25.8886C69.6208 25.9629 69.5837 26 69.5094 26H68.6277ZM72.2299 26.1114C71.8215 26.1114 71.5121 25.9845 71.3018 25.7308C71.0914 25.471 70.9862 25.0874 70.9862 24.58V21.5451C70.9862 21.4708 71.0202 21.4337 71.0883 21.4337H71.97C72.0442 21.4337 72.0814 21.4708 72.0814 21.5451V24.4037C72.0814 24.6635 72.1247 24.8553 72.2113 24.9791C72.3041 25.1028 72.4464 25.1647 72.6382 25.1647C72.8424 25.1647 73.0466 25.0997 73.2508 24.9698C73.4612 24.8337 73.6963 24.6326 73.9561 24.3665L73.9933 25.1833C73.8138 25.3627 73.6313 25.5236 73.4457 25.6659C73.2663 25.802 73.0744 25.9103 72.8703 25.9907C72.6723 26.0712 72.4588 26.1114 72.2299 26.1114ZM74.0675 26C74.0304 26 73.9995 25.9938 73.9747 25.9814C73.9561 25.9629 73.9438 25.935 73.9376 25.8979C73.919 25.7865 73.9005 25.669 73.8819 25.5452C73.8695 25.4215 73.8602 25.2977 73.8541 25.174L73.7705 24.7007V21.5451C73.7705 21.4708 73.8076 21.4337 73.8819 21.4337H74.7636C74.8317 21.4337 74.8657 21.4708 74.8657 21.5451V24.8399C74.8657 25.0193 74.8688 25.1987 74.875 25.3782C74.8873 25.5514 74.9059 25.7216 74.9307 25.8886C74.943 25.9629 74.9059 26 74.8193 26H74.0675ZM77.4727 26.1114C77.0396 26.1114 76.7086 25.9753 76.4797 25.703C76.2507 25.4308 76.1363 25.0162 76.1363 24.4593V23.1971C76.1363 22.5722 76.2817 22.105 76.5725 21.7957C76.8633 21.4801 77.2685 21.3223 77.7883 21.3223C78.011 21.3223 78.2523 21.3533 78.5122 21.4152C78.7721 21.4708 78.9794 21.5482 79.134 21.6472L79.1712 22.5196C78.9979 22.4268 78.8123 22.3587 78.6143 22.3154C78.4163 22.2659 78.24 22.2412 78.0853 22.2412C77.8007 22.2412 77.5872 22.3309 77.4449 22.5103C77.3026 22.6898 77.2314 22.9527 77.2314 23.2992V24.348C77.2314 24.6202 77.284 24.8244 77.3892 24.9605C77.4944 25.0966 77.6553 25.1647 77.8718 25.1647C78.0141 25.1647 78.1502 25.1369 78.2802 25.0812C78.4163 25.0255 78.5586 24.942 78.7071 24.8306C78.8556 24.713 79.0227 24.5614 79.2083 24.3758L79.2454 25.1833C79.0598 25.3627 78.8742 25.5236 78.6885 25.6659C78.5091 25.8082 78.3204 25.9196 78.1224 26C77.9244 26.0742 77.7078 26.1114 77.4727 26.1114ZM79.3011 26C79.2702 26 79.2423 25.9938 79.2176 25.9814C79.199 25.9629 79.1866 25.935 79.1804 25.8979C79.1619 25.7989 79.1433 25.6813 79.1248 25.5452C79.1124 25.4091 79.1062 25.2915 79.1062 25.1925L79.0227 24.7007V19.7724C79.0227 19.6982 79.0598 19.661 79.134 19.661H80.0065C80.0807 19.661 80.1178 19.6982 80.1178 19.7724V24.8956C80.1178 25.0007 80.1209 25.1152 80.1271 25.239C80.1333 25.3565 80.1395 25.471 80.1457 25.5824C80.158 25.6937 80.1673 25.7865 80.1735 25.8608C80.1921 25.9536 80.158 26 80.0714 26H79.3011ZM83.3745 26.1114C82.7063 26.1114 82.2051 25.966 81.871 25.6752C81.5369 25.3782 81.3698 24.9389 81.3698 24.3573V23.2064C81.3698 22.5877 81.5338 22.1205 81.8617 21.805C82.1958 21.4832 82.697 21.3223 83.3653 21.3223C84.0211 21.3223 84.5161 21.477 84.8502 21.7864C85.1844 22.0958 85.3514 22.5474 85.3514 23.1414V23.8654C85.3514 23.9396 85.3143 23.9767 85.24 23.9767H82.4557V24.2552C82.4557 24.5955 82.5269 24.8461 82.6692 25.0069C82.8177 25.1616 83.0559 25.239 83.3838 25.239C83.6375 25.239 83.8324 25.1987 83.9685 25.1183C84.1108 25.0379 84.182 24.9172 84.182 24.7563C84.182 24.6821 84.2191 24.645 84.2934 24.645H85.1472C85.2153 24.645 85.2524 24.679 85.2586 24.7471C85.2772 25.1925 85.1225 25.5329 84.7945 25.768C84.4728 25.9969 83.9995 26.1114 83.3745 26.1114ZM82.4557 23.2342H84.2748V23.1878C84.2748 22.8475 84.2006 22.5969 84.0521 22.4361C83.9036 22.2752 83.6777 22.1948 83.3745 22.1948C83.059 22.1948 82.827 22.2783 82.6785 22.4454C82.53 22.6062 82.4557 22.8568 82.4557 23.1971V23.2342ZM90.5989 26.1114C89.943 26.1114 89.4357 25.9567 89.0768 25.6473C88.7241 25.3318 88.5478 24.8553 88.5478 24.218V23.2157C88.5478 22.5846 88.7241 22.1112 89.0768 21.7957C89.4295 21.4801 89.9369 21.3223 90.5989 21.3223C91.2548 21.3223 91.759 21.4801 92.1117 21.7957C92.4644 22.1112 92.6407 22.5846 92.6407 23.2157V24.218C92.6407 24.8553 92.4644 25.3318 92.1117 25.6473C91.7652 25.9567 91.261 26.1114 90.5989 26.1114ZM90.5989 25.174C90.933 25.174 91.1743 25.0905 91.3228 24.9234C91.4713 24.7501 91.5456 24.481 91.5456 24.1159V23.3178C91.5456 22.9527 91.4713 22.6867 91.3228 22.5196C91.1743 22.3464 90.933 22.2597 90.5989 22.2597C90.2648 22.2597 90.0204 22.3464 89.8657 22.5196C89.7172 22.6867 89.643 22.9527 89.643 23.3178V24.1159C89.643 24.481 89.7172 24.7501 89.8657 24.9234C90.0204 25.0905 90.2648 25.174 90.5989 25.174ZM96.9097 26C96.8355 26 96.7984 25.9629 96.7984 25.8886V23.0301C96.7984 22.7702 96.7458 22.5784 96.6406 22.4546C96.5354 22.3309 96.3745 22.269 96.158 22.269C95.9414 22.269 95.728 22.334 95.5176 22.4639C95.3134 22.5877 95.0783 22.7826 94.8122 23.0486L94.7751 22.2412C94.9545 22.0494 95.134 21.8854 95.3134 21.7493C95.499 21.6131 95.6908 21.508 95.8888 21.4337C96.0868 21.3595 96.3034 21.3223 96.5385 21.3223C96.984 21.3223 97.3212 21.4492 97.5501 21.7029C97.7791 21.9504 97.8935 22.334 97.8935 22.8537V25.8886C97.8935 25.9629 97.8564 26 97.7822 26H96.9097ZM93.9955 26C93.9274 26 93.8934 25.9629 93.8934 25.8886V22.5938C93.8934 22.4206 93.8841 22.2381 93.8656 22.0463C93.8532 21.8545 93.8408 21.6936 93.8284 21.5636C93.8161 21.477 93.8532 21.4337 93.9398 21.4337H94.7194C94.7565 21.4337 94.7844 21.4399 94.8029 21.4523C94.8215 21.4647 94.8339 21.4925 94.8401 21.5358C94.8524 21.5853 94.8648 21.6596 94.8772 21.7586C94.8896 21.8514 94.9019 21.9504 94.9143 22.0555C94.9267 22.1607 94.9329 22.2535 94.9329 22.334L94.9886 22.7052V25.8886C94.9886 25.9629 94.9514 26 94.8772 26H93.9955ZM99.3564 26C99.2883 26 99.2543 25.9629 99.2543 25.8886V21.5451C99.2543 21.4708 99.2883 21.4337 99.3564 21.4337H100.238C100.312 21.4337 100.349 21.4708 100.349 21.5451V25.8886C100.349 25.9629 100.312 26 100.238 26H99.3564ZM99.8019 20.7748C99.5915 20.7748 99.4306 20.7191 99.3193 20.6077C99.2141 20.4963 99.1615 20.354 99.1615 20.1808V20.0416C99.1615 19.8621 99.2141 19.7198 99.3193 19.6146C99.4306 19.5033 99.5915 19.4476 99.8019 19.4476C100.012 19.4476 100.17 19.5033 100.275 19.6146C100.38 19.7198 100.433 19.8621 100.433 20.0416V20.1808C100.433 20.354 100.38 20.4963 100.275 20.6077C100.17 20.7191 100.012 20.7748 99.8019 20.7748ZM103.645 26.1114C102.989 26.1114 102.482 25.9567 102.123 25.6473C101.771 25.3318 101.594 24.8553 101.594 24.218V23.2157C101.594 22.5846 101.771 22.1112 102.123 21.7957C102.476 21.4801 102.983 21.3223 103.645 21.3223C104.301 21.3223 104.805 21.4801 105.158 21.7957C105.511 22.1112 105.687 22.5846 105.687 23.2157V24.218C105.687 24.8553 105.511 25.3318 105.158 25.6473C104.812 25.9567 104.307 26.1114 103.645 26.1114ZM103.645 25.174C103.979 25.174 104.221 25.0905 104.369 24.9234C104.518 24.7501 104.592 24.481 104.592 24.1159V23.3178C104.592 22.9527 104.518 22.6867 104.369 22.5196C104.221 22.3464 103.979 22.2597 103.645 22.2597C103.311 22.2597 103.067 22.3464 102.912 22.5196C102.764 22.6867 102.689 22.9527 102.689 23.3178V24.1159C102.689 24.481 102.764 24.7501 102.912 24.9234C103.067 25.0905 103.311 25.174 103.645 25.174ZM109.956 26C109.882 26 109.845 25.9629 109.845 25.8886V23.0301C109.845 22.7702 109.792 22.5784 109.687 22.4546C109.582 22.3309 109.421 22.269 109.204 22.269C108.988 22.269 108.774 22.334 108.564 22.4639C108.36 22.5877 108.125 22.7826 107.859 23.0486L107.822 22.2412C108.001 22.0494 108.18 21.8854 108.36 21.7493C108.545 21.6131 108.737 21.508 108.935 21.4337C109.133 21.3595 109.35 21.3223 109.585 21.3223C110.03 21.3223 110.368 21.4492 110.597 21.7029C110.825 21.9504 110.94 22.334 110.94 22.8537V25.8886C110.94 25.9629 110.903 26 110.829 26H109.956ZM107.042 26C106.974 26 106.94 25.9629 106.94 25.8886V22.5938C106.94 22.4206 106.931 22.2381 106.912 22.0463C106.9 21.8545 106.887 21.6936 106.875 21.5636C106.862 21.477 106.9 21.4337 106.986 21.4337H107.766C107.803 21.4337 107.831 21.4399 107.849 21.4523C107.868 21.4647 107.88 21.4925 107.886 21.5358C107.899 21.5853 107.911 21.6596 107.924 21.7586C107.936 21.8514 107.948 21.9504 107.961 22.0555C107.973 22.1607 107.979 22.2535 107.979 22.334L108.035 22.7052V25.8886C108.035 25.9629 107.998 26 107.924 26H107.042ZM113.888 26.1114C113.275 26.1114 112.824 25.9907 112.533 25.7494C112.248 25.5081 112.115 25.1338 112.134 24.6264C112.134 24.5583 112.171 24.5243 112.245 24.5243H113.08C113.142 24.5243 113.173 24.5583 113.173 24.6264C113.173 24.8491 113.232 25.0131 113.349 25.1183C113.467 25.2235 113.646 25.2761 113.888 25.2761C114.141 25.2761 114.33 25.2359 114.454 25.1554C114.578 25.075 114.64 24.9512 114.64 24.7842C114.64 24.6666 114.599 24.5676 114.519 24.4872C114.438 24.4006 114.309 24.3201 114.129 24.2459L113.071 23.8004C112.749 23.6643 112.517 23.5034 112.375 23.3178C112.239 23.1321 112.171 22.8908 112.171 22.5938C112.171 22.1731 112.307 21.8575 112.579 21.6472C112.858 21.4306 113.285 21.3223 113.86 21.3223C114.448 21.3223 114.89 21.4337 115.187 21.6565C115.484 21.8792 115.633 22.204 115.633 22.631C115.633 22.699 115.596 22.7331 115.521 22.7331H114.686C114.655 22.7331 114.627 22.7238 114.602 22.7052C114.584 22.6805 114.575 22.6403 114.575 22.5846C114.575 22.4484 114.516 22.3433 114.398 22.269C114.281 22.1886 114.117 22.1484 113.906 22.1484C113.69 22.1484 113.529 22.1855 113.424 22.2597C113.319 22.334 113.266 22.4454 113.266 22.5938C113.266 22.7052 113.297 22.7918 113.359 22.8537C113.427 22.9156 113.557 22.9867 113.749 23.0672L114.807 23.5127C115.135 23.6488 115.37 23.8128 115.512 24.0046C115.66 24.1902 115.735 24.4346 115.735 24.7378C115.735 25.1895 115.577 25.5329 115.261 25.768C114.946 25.9969 114.488 26.1114 113.888 26.1114ZM117.504 26.1114C117.269 26.1114 117.09 26.0526 116.966 25.935C116.848 25.8113 116.79 25.6504 116.79 25.4524V25.2946C116.79 25.0905 116.848 24.9296 116.966 24.812C117.09 24.6945 117.269 24.6357 117.504 24.6357C117.746 24.6357 117.925 24.6945 118.043 24.812C118.16 24.9296 118.219 25.0905 118.219 25.2946V25.4524C118.219 25.6504 118.16 25.8113 118.043 25.935C117.925 26.0526 117.746 26.1114 117.504 26.1114Z" fill="white"/>
<defs>
<filter id="filter0_d_1_3057" x="0" y="0" width="197" height="71" filterUnits="userSpaceOnUse" color-interpolation-filters="sRGB">
<feFlood flood-opacity="0" result="BackgroundImageFix"/>
<feColorMatrix in="SourceAlpha" type="matrix" values="0 0 0 0 0 0 0 0 0 0 0 0 0 0 0 0 0 0 127 0" result="hardAlpha"/>
<feOffset dy="12"/>
<feGaussianBlur stdDeviation="8"/>
<feComposite in2="hardAlpha" operator="out"/>
<feColorMatrix type="matrix" values="0 0 0 0 0 0 0 0 0 0 0 0 0 0 0 0 0 0 0.16 0"/>
<feBlend mode="normal" in2="BackgroundImageFix" result="effect1_dropShadow_1_3057"/>
<feBlend mode="normal" in="SourceGraphic" in2="effect1_dropShadow_1_3057" result="shape"/>
</filter>
</defs>
</svg>
