<svg width="197" height="71" viewBox="0 0 197 71" fill="none" xmlns="http://www.w3.org/2000/svg">
<g filter="url(#filter0_d_1_3051)">
<rect x="16" y="4" width="165" height="39" rx="7" fill="#009F79"/>
<rect x="17" y="5" width="163" height="37" rx="6" stroke="white" stroke-width="2"/>
</g>
<rect x="25" y="13" width="20" height="20" rx="9.99999" fill="#1E735E"/>
<path d="M30 26.63H39V17.63H30V26.63Z" fill="#04153C"/>
<path d="M53.7889 26C53.7208 26 53.6868 25.9629 53.6868 25.8886V20.0323C53.6868 19.958 53.7208 19.9209 53.7889 19.9209H55.5152C56.3195 19.9209 56.9104 20.0911 57.2879 20.4314C57.6715 20.7655 57.8633 21.2574 57.8633 21.907C57.8633 22.5443 57.6684 23.0332 57.2786 23.3735C56.8888 23.7076 56.3041 23.8746 55.5245 23.8746H54.8005V25.8886C54.8005 25.9629 54.7634 26 54.6892 26H53.7889ZM54.8005 22.928H55.5059C55.9266 22.928 56.2391 22.8475 56.4433 22.6867C56.6475 22.5258 56.7496 22.269 56.7496 21.9163C56.7496 21.5451 56.6475 21.279 56.4433 21.1182C56.2391 20.9573 55.9235 20.8769 55.4966 20.8769H54.8005V22.928ZM59.066 26C58.998 26 58.964 25.9629 58.964 25.8886V21.5451C58.964 21.4708 58.998 21.4337 59.066 21.4337H59.9477C60.022 21.4337 60.0591 21.4708 60.0591 21.5451V25.8886C60.0591 25.9629 60.022 26 59.9477 26H59.066ZM59.5115 20.7748C59.3012 20.7748 59.1403 20.7191 59.0289 20.6077C58.9237 20.4963 58.8711 20.354 58.8711 20.1808V20.0416C58.8711 19.8621 58.9237 19.7198 59.0289 19.6146C59.1403 19.5033 59.3012 19.4476 59.5115 19.4476C59.7219 19.4476 59.8797 19.5033 59.9849 19.6146C60.0901 19.7198 60.1427 19.8621 60.1427 20.0416V20.1808C60.1427 20.354 60.0901 20.4963 59.9849 20.6077C59.8797 20.7191 59.7219 20.7748 59.5115 20.7748ZM63.3364 26.1114C62.6806 26.1114 62.1763 25.9505 61.8236 25.6288C61.4771 25.307 61.3039 24.843 61.3039 24.2366V23.1878C61.3039 22.5877 61.4802 22.1267 61.8329 21.805C62.1856 21.4832 62.6898 21.3223 63.3457 21.3223C63.7603 21.3223 64.1098 21.3904 64.3945 21.5265C64.6791 21.6565 64.8956 21.8359 65.0441 22.0648C65.1926 22.2876 65.2607 22.5443 65.2483 22.8352C65.2421 22.9651 65.205 23.0301 65.137 23.0301H64.3017C64.2707 23.0301 64.246 23.0177 64.2274 22.9929C64.2088 22.9682 64.1996 22.9311 64.1996 22.8816C64.1996 22.6836 64.1222 22.532 63.9675 22.4268C63.819 22.3154 63.6149 22.2597 63.355 22.2597C63.0332 22.2597 62.7919 22.3433 62.6311 22.5103C62.4764 22.6712 62.399 22.9342 62.399 23.2992V24.1345C62.399 24.4934 62.4764 24.7563 62.6311 24.9234C62.7919 25.0843 63.0302 25.1647 63.3457 25.1647C63.618 25.1647 63.8252 25.109 63.9675 24.9976C64.116 24.8801 64.1903 24.7316 64.1903 24.5522C64.1903 24.4593 64.2243 24.4129 64.2924 24.4129H65.1277C65.1957 24.4129 65.2329 24.447 65.239 24.515C65.2514 24.9976 65.0967 25.3844 64.775 25.6752C64.4532 25.966 63.9737 26.1114 63.3364 26.1114ZM66.5975 26C66.5294 26 66.4954 25.9629 66.4954 25.8886V19.7724C66.4954 19.6982 66.5294 19.661 66.5975 19.661H67.4792C67.5534 19.661 67.5906 19.6982 67.5906 19.7724V22.037C67.5906 22.1793 67.5875 22.3216 67.5813 22.4639C67.5813 22.6062 67.5782 22.7485 67.572 22.8908C67.572 23.0332 67.5689 23.1755 67.5627 23.3178H67.5813C67.6865 23.1816 67.7917 23.0455 67.8968 22.9094C68.0082 22.7733 68.1196 22.6403 68.231 22.5103L69.1219 21.4894C69.1467 21.4523 69.19 21.4337 69.2519 21.4337H70.3563C70.412 21.4337 70.4429 21.4461 70.4491 21.4708C70.4615 21.4956 70.4522 21.5265 70.4213 21.5636L68.8806 23.2621L70.5512 25.8701C70.576 25.9072 70.5822 25.9381 70.5698 25.9629C70.5574 25.9876 70.5265 26 70.477 26H69.4468C69.3911 26 69.3478 25.9753 69.3168 25.9258L68.1196 24.0324L67.5906 24.5893V25.8886C67.5906 25.9629 67.5534 26 67.4792 26H66.5975ZM73.1784 26.1114C72.5102 26.1114 72.009 25.966 71.6749 25.6752C71.3408 25.3782 71.1737 24.9389 71.1737 24.3573V23.2064C71.1737 22.5877 71.3377 22.1205 71.6656 21.805C71.9997 21.4832 72.5009 21.3223 73.1691 21.3223C73.825 21.3223 74.32 21.477 74.6541 21.7864C74.9882 22.0958 75.1553 22.5474 75.1553 23.1414V23.8654C75.1553 23.9396 75.1182 23.9767 75.0439 23.9767H72.2596V24.2552C72.2596 24.5955 72.3307 24.8461 72.4731 25.0069C72.6216 25.1616 72.8598 25.239 73.1877 25.239C73.4414 25.239 73.6363 25.1987 73.7724 25.1183C73.9147 25.0379 73.9859 24.9172 73.9859 24.7563C73.9859 24.6821 74.023 24.645 74.0972 24.645H74.9511C75.0192 24.645 75.0563 24.679 75.0625 24.7471C75.081 25.1925 74.9264 25.5329 74.5984 25.768C74.2767 25.9969 73.8033 26.1114 73.1784 26.1114ZM72.2596 23.2342H74.0787V23.1878C74.0787 22.8475 74.0044 22.5969 73.8559 22.4361C73.7074 22.2752 73.4816 22.1948 73.1784 22.1948C72.8629 22.1948 72.6308 22.2783 72.4823 22.4454C72.3338 22.6062 72.2596 22.8568 72.2596 23.1971V23.2342ZM77.6449 26.1114C77.2118 26.1114 76.8808 25.9753 76.6519 25.703C76.4229 25.4308 76.3085 25.0162 76.3085 24.4593V23.1971C76.3085 22.5722 76.4539 22.105 76.7447 21.7957C77.0355 21.4801 77.4407 21.3223 77.9605 21.3223C78.1832 21.3223 78.4245 21.3533 78.6844 21.4152C78.9443 21.4708 79.1516 21.5482 79.3062 21.6472L79.3434 22.5196C79.1701 22.4268 78.9845 22.3587 78.7865 22.3154C78.5885 22.2659 78.4122 22.2412 78.2575 22.2412C77.9729 22.2412 77.7594 22.3309 77.6171 22.5103C77.4748 22.6898 77.4036 22.9527 77.4036 23.2992V24.348C77.4036 24.6202 77.4562 24.8244 77.5614 24.9605C77.6666 25.0966 77.8275 25.1647 78.044 25.1647C78.1863 25.1647 78.3225 25.1369 78.4524 25.0812C78.5885 25.0255 78.7308 24.942 78.8793 24.8306C79.0278 24.713 79.1949 24.5614 79.3805 24.3758L79.4176 25.1833C79.232 25.3627 79.0464 25.5236 78.8608 25.6659C78.6813 25.8082 78.4926 25.9196 78.2946 26C78.0966 26.0742 77.8801 26.1114 77.6449 26.1114ZM79.4733 26C79.4424 26 79.4145 25.9938 79.3898 25.9814C79.3712 25.9629 79.3588 25.935 79.3526 25.8979C79.3341 25.7989 79.3155 25.6813 79.297 25.5452C79.2846 25.4091 79.2784 25.2915 79.2784 25.1925L79.1949 24.7007V19.7724C79.1949 19.6982 79.232 19.661 79.3062 19.661H80.1787C80.2529 19.661 80.29 19.6982 80.29 19.7724V24.8956C80.29 25.0007 80.2931 25.1152 80.2993 25.239C80.3055 25.3565 80.3117 25.471 80.3179 25.5824C80.3303 25.6937 80.3395 25.7865 80.3457 25.8608C80.3643 25.9536 80.3303 26 80.2436 26H79.4733ZM85.6918 26.1114C85.4567 26.1114 85.2371 26.0959 85.0329 26.065C84.8349 26.0402 84.6307 26.0124 84.4203 25.9814C84.2161 25.9505 83.9872 25.9258 83.7335 25.9072V19.7724C83.7335 19.6982 83.7676 19.661 83.8356 19.661H84.7173C84.7916 19.661 84.8287 19.6982 84.8287 19.7724V25.109C84.9463 25.1338 85.07 25.1554 85.1999 25.174C85.3361 25.1864 85.4629 25.1925 85.5805 25.1925C85.9146 25.1925 86.1621 25.1059 86.323 24.9327C86.4838 24.7532 86.5643 24.4872 86.5643 24.1345V23.1507C86.5643 22.8475 86.5117 22.6248 86.4065 22.4825C86.3013 22.3402 86.1373 22.269 85.9146 22.269C85.7351 22.269 85.5495 22.3216 85.3577 22.4268C85.1721 22.532 84.9401 22.7083 84.6616 22.9558L84.6895 22.0648C84.9617 21.805 85.2278 21.6162 85.4877 21.4987C85.7475 21.3811 86.0167 21.3223 86.2951 21.3223C86.7468 21.3223 87.0871 21.4585 87.316 21.7307C87.545 21.9968 87.6594 22.4082 87.6594 22.9651V24.2273C87.6594 24.8584 87.4986 25.3318 87.1768 25.6473C86.8551 25.9567 86.3601 26.1114 85.6918 26.1114ZM89.5739 27.717C89.4872 27.717 89.4625 27.6737 89.4996 27.5871L90.1214 25.9629L88.423 21.5636C88.3921 21.477 88.4199 21.4337 88.5065 21.4337H89.4625C89.5244 21.4337 89.5646 21.4647 89.5831 21.5265L90.2514 23.4291C90.3194 23.621 90.3844 23.8251 90.4463 24.0417C90.5082 24.2521 90.5669 24.4655 90.6226 24.6821H90.6412C90.7031 24.4655 90.7649 24.2521 90.8268 24.0417C90.8887 23.8313 90.9536 23.6271 91.0217 23.4291L91.6899 21.5265C91.7085 21.4647 91.7487 21.4337 91.8106 21.4337H92.7387C92.7758 21.4337 92.8037 21.4461 92.8222 21.4708C92.8408 21.4956 92.8439 21.5265 92.8315 21.5636L90.5577 27.6335C90.5329 27.6892 90.4927 27.717 90.437 27.717H89.5739ZM97.7676 26.1114C97.2974 26.1114 96.9075 26.0402 96.5982 25.8979C96.295 25.7556 96.0723 25.5545 95.9299 25.2946C95.7938 25.0348 95.7319 24.7347 95.7443 24.3944C95.7443 24.3201 95.7783 24.283 95.8464 24.283H96.691C96.7652 24.283 96.8024 24.3201 96.8024 24.3944C96.8024 24.6604 96.8828 24.8553 97.0437 24.9791C97.2107 25.1028 97.4582 25.1647 97.7862 25.1647C98.1388 25.1647 98.408 25.0935 98.5936 24.9512C98.7792 24.8027 98.872 24.5955 98.872 24.3294V24.1438C98.872 23.8777 98.7823 23.6797 98.6029 23.5498C98.4296 23.4199 98.1698 23.3549 97.8233 23.3549H97.0715C96.9973 23.3549 96.9601 23.3178 96.9601 23.2435V22.5567C96.9601 22.4825 96.9973 22.4454 97.0715 22.4454H97.749C98.0893 22.4454 98.3399 22.3804 98.5008 22.2504C98.6617 22.1143 98.7421 21.9101 98.7421 21.6379V21.4337C98.7421 21.1986 98.6617 21.0253 98.5008 20.914C98.3399 20.8026 98.0986 20.7469 97.7769 20.7469C97.4428 20.7469 97.1984 20.8088 97.0437 20.9325C96.889 21.0501 96.8116 21.2388 96.8116 21.4987C96.8116 21.5729 96.7745 21.6101 96.7003 21.6101H95.865C95.834 21.6101 95.8062 21.6008 95.7814 21.5822C95.7629 21.5575 95.7536 21.5296 95.7536 21.4987C95.7536 20.9418 95.9268 20.5211 96.2733 20.2365C96.626 19.9518 97.1519 19.8095 97.8511 19.8095C98.5317 19.8095 99.0329 19.9395 99.3547 20.1993C99.6764 20.4592 99.8373 20.8521 99.8373 21.378C99.8373 21.7616 99.7568 22.0772 99.596 22.3247C99.4413 22.566 99.2247 22.7331 98.9463 22.8259V22.8444C99.2928 22.9496 99.5496 23.126 99.7166 23.3735C99.8899 23.6148 99.9765 23.9241 99.9765 24.3016C99.9765 24.8894 99.7878 25.338 99.4103 25.6473C99.0329 25.9567 98.4853 26.1114 97.7676 26.1114ZM101.095 26C101.027 26 100.993 25.9629 100.993 25.8886V25.1461C100.993 25.0781 101.027 25.044 101.095 25.044H102.506V21.0903L101.16 21.508C101.129 21.5142 101.101 21.5111 101.077 21.4987C101.058 21.4863 101.049 21.4616 101.049 21.4244V20.6912C101.049 20.6294 101.073 20.5891 101.123 20.5706L103.174 19.9023C103.199 19.8962 103.224 19.89 103.248 19.8838C103.279 19.8776 103.307 19.8745 103.332 19.8745H103.499C103.567 19.8745 103.601 19.9116 103.601 19.9859V25.044H104.872C104.947 25.044 104.984 25.0781 104.984 25.1461V25.8886C104.984 25.9629 104.947 26 104.872 26H101.095ZM108.736 26C108.668 26 108.633 25.9629 108.633 25.8886V24.8956H105.571C105.503 24.8956 105.469 24.8584 105.469 24.7842V24.645C105.469 24.6078 105.469 24.58 105.469 24.5614C105.475 24.5429 105.484 24.5181 105.496 24.4872L107.863 20.0044C107.9 19.9487 107.947 19.9209 108.002 19.9209H108.93C108.968 19.9209 108.995 19.9333 109.014 19.958C109.033 19.9766 109.029 20.0044 109.005 20.0416L106.963 23.9396H108.652L108.726 22.0648C108.726 21.9906 108.76 21.9535 108.828 21.9535H109.617C109.692 21.9535 109.729 21.9906 109.729 22.0648V23.9396H110.36C110.434 23.9396 110.471 23.9736 110.471 24.0417V24.7842C110.471 24.8584 110.434 24.8956 110.36 24.8956H109.729V25.8886C109.729 25.9629 109.692 26 109.617 26H108.736ZM115.812 26.1114C115.595 26.1114 115.36 26.0804 115.106 26.0186C114.859 25.9629 114.652 25.8855 114.485 25.7865L114.466 24.9141C114.627 25.0069 114.8 25.0781 114.986 25.1276C115.171 25.1709 115.345 25.1925 115.506 25.1925C115.803 25.1925 116.019 25.1028 116.155 24.9234C116.291 24.744 116.359 24.481 116.359 24.1345V23.1507C116.359 22.8475 116.307 22.6248 116.202 22.4825C116.096 22.3402 115.932 22.269 115.71 22.269C115.518 22.269 115.323 22.3278 115.125 22.4454C114.927 22.5629 114.692 22.7454 114.42 22.9929L114.373 22.1762C114.553 22.003 114.732 21.8545 114.912 21.7307C115.091 21.6008 115.277 21.5018 115.468 21.4337C115.66 21.3595 115.867 21.3223 116.09 21.3223C116.542 21.3223 116.882 21.4585 117.111 21.7307C117.34 21.9968 117.455 22.4082 117.455 22.9651V24.2366C117.455 24.8677 117.312 25.338 117.028 25.6473C116.749 25.9567 116.344 26.1114 115.812 26.1114ZM113.631 27.717C113.563 27.717 113.529 27.6799 113.529 27.6056V22.5382C113.529 22.3773 113.522 22.2102 113.51 22.037C113.498 21.8637 113.482 21.7029 113.464 21.5544C113.458 21.4739 113.495 21.4337 113.575 21.4337H114.355C114.423 21.4337 114.463 21.4677 114.475 21.5358C114.488 21.5853 114.5 21.6503 114.512 21.7307C114.525 21.805 114.534 21.8823 114.54 21.9627C114.546 22.0432 114.55 22.1081 114.55 22.1576L114.624 22.6774V27.6056C114.624 27.6799 114.587 27.717 114.512 27.717H113.631ZM120.61 26.1114C119.942 26.1114 119.441 25.966 119.107 25.6752C118.773 25.3782 118.606 24.9389 118.606 24.3573V23.2064C118.606 22.5877 118.77 22.1205 119.098 21.805C119.432 21.4832 119.933 21.3223 120.601 21.3223C121.257 21.3223 121.752 21.477 122.086 21.7864C122.42 22.0958 122.587 22.5474 122.587 23.1414V23.8654C122.587 23.9396 122.55 23.9767 122.476 23.9767H119.692V24.2552C119.692 24.5955 119.763 24.8461 119.905 25.0069C120.054 25.1616 120.292 25.239 120.62 25.239C120.873 25.239 121.068 25.1987 121.204 25.1183C121.347 25.0379 121.418 24.9172 121.418 24.7563C121.418 24.6821 121.455 24.645 121.529 24.645H122.383C122.451 24.645 122.488 24.679 122.495 24.7471C122.513 25.1925 122.358 25.5329 122.03 25.768C121.709 25.9969 121.235 26.1114 120.61 26.1114ZM119.692 23.2342H121.511V23.1878C121.511 22.8475 121.436 22.5969 121.288 22.4361C121.139 22.2752 120.914 22.1948 120.61 22.1948C120.295 22.1948 120.063 22.2783 119.914 22.4454C119.766 22.6062 119.692 22.8568 119.692 23.1971V23.2342ZM125.773 26.1114C125.117 26.1114 124.61 25.9567 124.251 25.6473C123.898 25.3318 123.722 24.8553 123.722 24.218V23.2157C123.722 22.5846 123.898 22.1112 124.251 21.7957C124.604 21.4801 125.111 21.3223 125.773 21.3223C126.429 21.3223 126.933 21.4801 127.286 21.7957C127.639 22.1112 127.815 22.5846 127.815 23.2157V24.218C127.815 24.8553 127.639 25.3318 127.286 25.6473C126.939 25.9567 126.435 26.1114 125.773 26.1114ZM125.773 25.174C126.107 25.174 126.348 25.0905 126.497 24.9234C126.645 24.7501 126.72 24.481 126.72 24.1159V23.3178C126.72 22.9527 126.645 22.6867 126.497 22.5196C126.348 22.3464 126.107 22.2597 125.773 22.2597C125.439 22.2597 125.195 22.3464 125.04 22.5196C124.891 22.6867 124.817 22.9527 124.817 23.3178V24.1159C124.817 24.481 124.891 24.7501 125.04 24.9234C125.195 25.0905 125.439 25.174 125.773 25.174ZM131.351 26.1114C131.134 26.1114 130.899 26.0804 130.645 26.0186C130.398 25.9629 130.191 25.8855 130.024 25.7865L130.005 24.9141C130.166 25.0069 130.339 25.0781 130.525 25.1276C130.71 25.1709 130.884 25.1925 131.044 25.1925C131.341 25.1925 131.558 25.1028 131.694 24.9234C131.83 24.744 131.898 24.481 131.898 24.1345V23.1507C131.898 22.8475 131.846 22.6248 131.741 22.4825C131.635 22.3402 131.471 22.269 131.249 22.269C131.057 22.269 130.862 22.3278 130.664 22.4454C130.466 22.5629 130.231 22.7454 129.959 22.9929L129.912 22.1762C130.092 22.003 130.271 21.8545 130.45 21.7307C130.63 21.6008 130.815 21.5018 131.007 21.4337C131.199 21.3595 131.406 21.3223 131.629 21.3223C132.081 21.3223 132.421 21.4585 132.65 21.7307C132.879 21.9968 132.993 22.4082 132.993 22.9651V24.2366C132.993 24.8677 132.851 25.338 132.567 25.6473C132.288 25.9567 131.883 26.1114 131.351 26.1114ZM129.17 27.717C129.102 27.717 129.068 27.6799 129.068 27.6056V22.5382C129.068 22.3773 129.061 22.2102 129.049 22.037C129.037 21.8637 129.021 21.7029 129.003 21.5544C128.996 21.4739 129.034 21.4337 129.114 21.4337H129.894C129.962 21.4337 130.002 21.4677 130.014 21.5358C130.027 21.5853 130.039 21.6503 130.051 21.7307C130.064 21.805 130.073 21.8823 130.079 21.9627C130.085 22.0432 130.088 22.1081 130.088 22.1576L130.163 22.6774V27.6056C130.163 27.6799 130.126 27.717 130.051 27.717H129.17ZM134.367 26C134.299 26 134.265 25.9629 134.265 25.8886V19.7724C134.265 19.6982 134.299 19.661 134.367 19.661H135.249C135.323 19.661 135.36 19.6982 135.36 19.7724V25.8886C135.36 25.9629 135.323 26 135.249 26H134.367ZM138.61 26.1114C137.942 26.1114 137.441 25.966 137.106 25.6752C136.772 25.3782 136.605 24.9389 136.605 24.3573V23.2064C136.605 22.5877 136.769 22.1205 137.097 21.805C137.431 21.4832 137.932 21.3223 138.601 21.3223C139.257 21.3223 139.752 21.477 140.086 21.7864C140.42 22.0958 140.587 22.5474 140.587 23.1414V23.8654C140.587 23.9396 140.55 23.9767 140.475 23.9767H137.691V24.2552C137.691 24.5955 137.762 24.8461 137.905 25.0069C138.053 25.1616 138.291 25.239 138.619 25.239C138.873 25.239 139.068 25.1987 139.204 25.1183C139.346 25.0379 139.417 24.9172 139.417 24.7563C139.417 24.6821 139.455 24.645 139.529 24.645H140.383C140.451 24.645 140.488 24.679 140.494 24.7471C140.513 25.1925 140.358 25.5329 140.03 25.768C139.708 25.9969 139.235 26.1114 138.61 26.1114ZM137.691 23.2342H139.51V23.1878C139.51 22.8475 139.436 22.5969 139.287 22.4361C139.139 22.2752 138.913 22.1948 138.61 22.1948C138.294 22.1948 138.062 22.2783 137.914 22.4454C137.765 22.6062 137.691 22.8568 137.691 23.1971V23.2342ZM145.704 26.1114C145.346 26.1114 145.058 26.0557 144.841 25.9443C144.631 25.8329 144.476 25.6597 144.377 25.4246C144.284 25.1895 144.238 24.8894 144.238 24.5243V22.3525H143.56C143.486 22.3525 143.449 22.3154 143.449 22.2412V21.5451C143.449 21.4708 143.486 21.4337 143.56 21.4337H144.275L144.396 20.32C144.408 20.2519 144.448 20.2179 144.516 20.2179H145.222C145.296 20.2179 145.333 20.255 145.333 20.3293V21.4337H146.605C146.679 21.4337 146.716 21.4708 146.716 21.5451V22.2412C146.716 22.3154 146.679 22.3525 146.605 22.3525H145.333V24.4686C145.333 24.7161 145.38 24.8956 145.472 25.0069C145.565 25.1183 145.72 25.174 145.936 25.174C146.048 25.174 146.159 25.1616 146.271 25.1369C146.388 25.1121 146.496 25.0781 146.595 25.0348C146.632 25.0224 146.663 25.0255 146.688 25.044C146.713 25.0564 146.725 25.0812 146.725 25.1183V25.8329C146.725 25.8948 146.697 25.935 146.642 25.9536C146.518 26.0031 146.376 26.0402 146.215 26.065C146.06 26.0959 145.89 26.1114 145.704 26.1114ZM149.609 26.1114C148.953 26.1114 148.446 25.9567 148.087 25.6473C147.734 25.3318 147.558 24.8553 147.558 24.218V23.2157C147.558 22.5846 147.734 22.1112 148.087 21.7957C148.44 21.4801 148.947 21.3223 149.609 21.3223C150.265 21.3223 150.769 21.4801 151.122 21.7957C151.475 22.1112 151.651 22.5846 151.651 23.2157V24.218C151.651 24.8553 151.475 25.3318 151.122 25.6473C150.775 25.9567 150.271 26.1114 149.609 26.1114ZM149.609 25.174C149.943 25.174 150.185 25.0905 150.333 24.9234C150.482 24.7501 150.556 24.481 150.556 24.1159V23.3178C150.556 22.9527 150.482 22.6867 150.333 22.5196C150.185 22.3464 149.943 22.2597 149.609 22.2597C149.275 22.2597 149.031 22.3464 148.876 22.5196C148.727 22.6867 148.653 22.9527 148.653 23.3178V24.1159C148.653 24.481 148.727 24.7501 148.876 24.9234C149.031 25.0905 149.275 25.174 149.609 25.174ZM154.147 26.1114C153.714 26.1114 153.383 25.9753 153.154 25.703C152.925 25.4308 152.811 25.0162 152.811 24.4593V23.1971C152.811 22.5722 152.956 22.105 153.247 21.7957C153.538 21.4801 153.943 21.3223 154.463 21.3223C154.685 21.3223 154.927 21.3533 155.187 21.4152C155.446 21.4708 155.654 21.5482 155.808 21.6472L155.845 22.5196C155.672 22.4268 155.487 22.3587 155.289 22.3154C155.091 22.2659 154.914 22.2412 154.76 22.2412C154.475 22.2412 154.262 22.3309 154.119 22.5103C153.977 22.6898 153.906 22.9527 153.906 23.2992V24.348C153.906 24.6202 153.958 24.8244 154.064 24.9605C154.169 25.0966 154.33 25.1647 154.546 25.1647C154.688 25.1647 154.825 25.1369 154.954 25.0812C155.091 25.0255 155.233 24.942 155.381 24.8306C155.53 24.713 155.697 24.5614 155.883 24.3758L155.92 25.1833C155.734 25.3627 155.548 25.5236 155.363 25.6659C155.183 25.8082 154.995 25.9196 154.797 26C154.599 26.0742 154.382 26.1114 154.147 26.1114ZM155.975 26C155.944 26 155.917 25.9938 155.892 25.9814C155.873 25.9629 155.861 25.935 155.855 25.8979C155.836 25.7989 155.818 25.6813 155.799 25.5452C155.787 25.4091 155.781 25.2915 155.781 25.1925L155.697 24.7007V19.7724C155.697 19.6982 155.734 19.661 155.808 19.661H156.681C156.755 19.661 156.792 19.6982 156.792 19.7724V24.8956C156.792 25.0007 156.795 25.1152 156.801 25.239C156.808 25.3565 156.814 25.471 156.82 25.5824C156.832 25.6937 156.842 25.7865 156.848 25.8608C156.866 25.9536 156.832 26 156.746 26H155.975ZM160.847 26C160.81 26 160.782 25.9907 160.763 25.9722C160.751 25.9474 160.739 25.9165 160.726 25.8793C160.714 25.8175 160.699 25.7123 160.68 25.5638C160.661 25.4091 160.646 25.2668 160.634 25.1369L160.569 24.7563V22.9001C160.569 22.6403 160.516 22.4577 160.411 22.3525C160.306 22.2412 160.123 22.1855 159.863 22.1855C159.393 22.1855 159.164 22.3556 159.176 22.6959C159.176 22.7702 159.142 22.8073 159.074 22.8073H158.239C158.165 22.8073 158.125 22.7516 158.118 22.6403C158.081 22.2257 158.22 21.904 158.536 21.675C158.858 21.4399 159.316 21.3223 159.91 21.3223C160.516 21.3223 160.958 21.4523 161.237 21.7121C161.521 21.972 161.664 22.3742 161.664 22.9187V24.8491C161.664 25.0471 161.667 25.2328 161.673 25.406C161.685 25.5793 161.701 25.737 161.719 25.8793C161.732 25.9598 161.698 26 161.617 26H160.847ZM159.074 26.1114C158.703 26.1114 158.418 26 158.22 25.7773C158.022 25.5545 157.923 25.2359 157.923 24.8213C157.923 24.4996 157.985 24.2397 158.109 24.0417C158.233 23.8375 158.434 23.6797 158.712 23.5684C158.997 23.4508 159.374 23.3735 159.845 23.3363L160.708 23.2621V23.9303L159.937 23.9953C159.579 24.0262 159.331 24.0943 159.195 24.1995C159.059 24.3047 158.991 24.4748 158.991 24.7099C158.991 24.8894 159.028 25.0255 159.102 25.1183C159.176 25.2049 159.291 25.2482 159.446 25.2482C159.631 25.2482 159.82 25.1895 160.012 25.0719C160.204 24.9481 160.445 24.7316 160.736 24.4222L160.773 25.1647C160.587 25.3689 160.405 25.5421 160.225 25.6844C160.046 25.8268 159.863 25.9319 159.678 26C159.492 26.0742 159.291 26.1114 159.074 26.1114ZM163.679 27.717C163.592 27.717 163.567 27.6737 163.605 27.5871L164.226 25.9629L162.528 21.5636C162.497 21.477 162.525 21.4337 162.612 21.4337H163.567C163.629 21.4337 163.67 21.4647 163.688 21.5265L164.356 23.4291C164.424 23.621 164.489 23.8251 164.551 24.0417C164.613 24.2521 164.672 24.4655 164.728 24.6821H164.746C164.808 24.4655 164.87 24.2521 164.932 24.0417C164.994 23.8313 165.059 23.6271 165.127 23.4291L165.795 21.5265C165.813 21.4647 165.854 21.4337 165.916 21.4337H166.844C166.881 21.4337 166.909 21.4461 166.927 21.4708C166.946 21.4956 166.949 21.5265 166.936 21.5636L164.663 27.6335C164.638 27.6892 164.598 27.717 164.542 27.717H163.679Z" fill="white"/>
<defs>
<filter id="filter0_d_1_3051" x="0" y="0" width="197" height="71" filterUnits="userSpaceOnUse" color-interpolation-filters="sRGB">
<feFlood flood-opacity="0" result="BackgroundImageFix"/>
<feColorMatrix in="SourceAlpha" type="matrix" values="0 0 0 0 0 0 0 0 0 0 0 0 0 0 0 0 0 0 127 0" result="hardAlpha"/>
<feOffset dy="12"/>
<feGaussianBlur stdDeviation="8"/>
<feComposite in2="hardAlpha" operator="out"/>
<feColorMatrix type="matrix" values="0 0 0 0 0 0 0 0 0 0 0 0 0 0 0 0 0 0 0.16 0"/>
<feBlend mode="normal" in2="BackgroundImageFix" result="effect1_dropShadow_1_3051"/>
<feBlend mode="normal" in="SourceGraphic" in2="effect1_dropShadow_1_3051" result="shape"/>
</filter>
</defs>
</svg>
