<svg width="193" height="91" viewBox="0 0 193 91" fill="none" xmlns="http://www.w3.org/2000/svg">
<g filter="url(#filter0_d_1_3045)">
<rect x="16" y="4" width="161" height="59" rx="7" fill="#D87023"/>
<rect x="17" y="5" width="159" height="57" rx="6" stroke="white" stroke-width="2"/>
</g>
<rect x="26" y="13" width="20" height="20" rx="9.99999" fill="#77441E"/>
<path d="M31.4551 27.0099H40.546V17.919H31.4551V27.0099Z" fill="white"/>
<path d="M28.1625 50C28.0944 50 28.0604 49.9629 28.0604 49.8886V47.9025L26.0742 44.0508C26.0557 44.0137 26.0526 43.9828 26.065 43.958C26.0835 43.9333 26.1114 43.9209 26.1485 43.9209H27.1694C27.2375 43.9209 27.2808 43.9456 27.2993 43.9951L28.1254 45.7493C28.212 45.9349 28.2955 46.1205 28.376 46.3061C28.4626 46.4918 28.543 46.6743 28.6173 46.8537H28.6265C28.707 46.6681 28.7874 46.4856 28.8679 46.3061C28.9545 46.1205 29.0411 45.9318 29.1277 45.74L29.9445 43.9951C29.9692 43.9456 30.0125 43.9209 30.0744 43.9209H31.0767C31.1139 43.9209 31.1386 43.9333 31.151 43.958C31.1696 43.9828 31.1696 44.0137 31.151 44.0508L29.1741 47.9025V49.8886C29.1741 49.9629 29.137 50 29.0628 50H28.1625ZM33.2509 50.1114C32.595 50.1114 32.0877 49.9567 31.7288 49.6473C31.3761 49.3318 31.1998 48.8553 31.1998 48.218V47.2157C31.1998 46.5846 31.3761 46.1112 31.7288 45.7957C32.0815 45.4801 32.5889 45.3223 33.2509 45.3223C33.9068 45.3223 34.411 45.4801 34.7637 45.7957C35.1164 46.1112 35.2927 46.5846 35.2927 47.2157V48.218C35.2927 48.8553 35.1164 49.3318 34.7637 49.6473C34.4172 49.9567 33.913 50.1114 33.2509 50.1114ZM33.2509 49.174C33.585 49.174 33.8263 49.0905 33.9748 48.9234C34.1233 48.7501 34.1976 48.481 34.1976 48.1159V47.3178C34.1976 46.9527 34.1233 46.6867 33.9748 46.5196C33.8263 46.3464 33.585 46.2597 33.2509 46.2597C32.9168 46.2597 32.6724 46.3464 32.5177 46.5196C32.3692 46.6867 32.295 46.9527 32.295 47.3178V48.1159C32.295 48.481 32.3692 48.7501 32.5177 48.9234C32.6724 49.0905 32.9168 49.174 33.2509 49.174ZM37.7981 50.1114C37.3898 50.1114 37.0804 49.9845 36.87 49.7308C36.6596 49.471 36.5545 49.0874 36.5545 48.58V45.5451C36.5545 45.4708 36.5885 45.4337 36.6566 45.4337H37.5383C37.6125 45.4337 37.6496 45.4708 37.6496 45.5451V48.4037C37.6496 48.6635 37.6929 48.8553 37.7796 48.9791C37.8724 49.1028 38.0147 49.1647 38.2065 49.1647C38.4107 49.1647 38.6149 49.0997 38.819 48.9698C39.0294 48.8337 39.2645 48.6326 39.5244 48.3665L39.5615 49.1833C39.3821 49.3627 39.1996 49.5236 39.0139 49.6659C38.8345 49.802 38.6427 49.9103 38.4385 49.9907C38.2405 50.0712 38.0271 50.1114 37.7981 50.1114ZM39.6358 50C39.5986 50 39.5677 49.9938 39.543 49.9814C39.5244 49.9629 39.512 49.935 39.5058 49.8979C39.4873 49.7865 39.4687 49.669 39.4502 49.5452C39.4378 49.4215 39.4285 49.2977 39.4223 49.174L39.3388 48.7007V45.5451C39.3388 45.4708 39.3759 45.4337 39.4502 45.4337H40.3319C40.3999 45.4337 40.4339 45.4708 40.4339 45.5451V48.8399C40.4339 49.0193 40.437 49.1987 40.4432 49.3782C40.4556 49.5514 40.4742 49.7216 40.4989 49.8886C40.5113 49.9629 40.4742 50 40.3875 50H39.6358ZM45.7893 50.1114C45.1335 50.1114 44.6292 49.9505 44.2765 49.6288C43.93 49.307 43.7568 48.843 43.7568 48.2366V47.1878C43.7568 46.5877 43.9331 46.1267 44.2858 45.805C44.6385 45.4832 45.1428 45.3223 45.7986 45.3223C46.2132 45.3223 46.5628 45.3904 46.8474 45.5265C47.132 45.6565 47.3486 45.8359 47.4971 46.0648C47.6456 46.2876 47.7136 46.5443 47.7012 46.8352C47.6951 46.9651 47.6579 47.0301 47.5899 47.0301H46.7546C46.7236 47.0301 46.6989 47.0177 46.6803 46.9929C46.6618 46.9682 46.6525 46.9311 46.6525 46.8816C46.6525 46.6836 46.5751 46.532 46.4205 46.4268C46.272 46.3154 46.0678 46.2597 45.8079 46.2597C45.4862 46.2597 45.2449 46.3433 45.084 46.5103C44.9293 46.6712 44.852 46.9342 44.852 47.2992V48.1345C44.852 48.4934 44.9293 48.7563 45.084 48.9234C45.2449 49.0843 45.4831 49.1647 45.7986 49.1647C46.0709 49.1647 46.2781 49.109 46.4205 48.9976C46.5689 48.8801 46.6432 48.7316 46.6432 48.5522C46.6432 48.4593 46.6772 48.4129 46.7453 48.4129H47.5806C47.6486 48.4129 47.6858 48.447 47.692 48.515C47.7043 48.9976 47.5496 49.3844 47.2279 49.6752C46.9062 49.966 46.4266 50.1114 45.7893 50.1114ZM51.5218 50C51.4847 50 51.4568 49.9907 51.4382 49.9722C51.4259 49.9474 51.4135 49.9165 51.4011 49.8793C51.3887 49.8175 51.3733 49.7123 51.3547 49.5638C51.3362 49.4091 51.3207 49.2668 51.3083 49.1369L51.2433 48.7563V46.9001C51.2433 46.6403 51.1908 46.4577 51.0856 46.3525C50.9804 46.2412 50.7979 46.1855 50.538 46.1855C50.0677 46.1855 49.8388 46.3556 49.8512 46.6959C49.8512 46.7702 49.8172 46.8073 49.7491 46.8073H48.9138C48.8395 46.8073 48.7993 46.7516 48.7931 46.6403C48.756 46.2257 48.8952 45.904 49.2108 45.675C49.5325 45.4399 49.9904 45.3223 50.5844 45.3223C51.1908 45.3223 51.6331 45.4523 51.9116 45.7121C52.1962 45.972 52.3385 46.3742 52.3385 46.9187V48.8491C52.3385 49.0471 52.3416 49.2328 52.3478 49.406C52.3602 49.5793 52.3756 49.737 52.3942 49.8793C52.4066 49.9598 52.3725 50 52.2921 50H51.5218ZM49.7491 50.1114C49.3779 50.1114 49.0932 50 48.8952 49.7773C48.6972 49.5545 48.5982 49.2359 48.5982 48.8213C48.5982 48.4996 48.6601 48.2397 48.7839 48.0417C48.9076 47.8375 49.1087 47.6797 49.3871 47.5684C49.6718 47.4508 50.0492 47.3735 50.5194 47.3363L51.3826 47.2621V47.9303L50.6122 47.9953C50.2534 48.0262 50.0059 48.0943 49.8697 48.1995C49.7336 48.3047 49.6656 48.4748 49.6656 48.7099C49.6656 48.8894 49.7027 49.0255 49.7769 49.1183C49.8512 49.2049 49.9657 49.2482 50.1203 49.2482C50.306 49.2482 50.4947 49.1895 50.6865 49.0719C50.8783 48.9481 51.1196 48.7316 51.4104 48.4222L51.4475 49.1647C51.2619 49.3689 51.0794 49.5421 50.8999 49.6844C50.7205 49.8268 50.538 49.9319 50.3524 50C50.1667 50.0742 49.9657 50.1114 49.7491 50.1114ZM56.7183 50C56.6441 50 56.6069 49.9629 56.6069 49.8886V47.0301C56.6069 46.7702 56.5543 46.5784 56.4492 46.4546C56.344 46.3309 56.1831 46.269 55.9665 46.269C55.75 46.269 55.5365 46.334 55.3261 46.4639C55.122 46.5877 54.8868 46.7826 54.6208 47.0486L54.5837 46.2412C54.7631 46.0494 54.9425 45.8854 55.122 45.7493C55.3076 45.6131 55.4994 45.508 55.6974 45.4337C55.8954 45.3595 56.1119 45.3223 56.3471 45.3223C56.7926 45.3223 57.1298 45.4492 57.3587 45.7029C57.5876 45.9504 57.7021 46.334 57.7021 46.8537V49.8886C57.7021 49.9629 57.665 50 57.5907 50H56.7183ZM53.804 50C53.736 50 53.702 49.9629 53.702 49.8886V46.5938C53.702 46.4206 53.6927 46.2381 53.6741 46.0463C53.6617 45.8545 53.6494 45.6936 53.637 45.5636C53.6246 45.477 53.6617 45.4337 53.7484 45.4337H54.528C54.5651 45.4337 54.5929 45.4399 54.6115 45.4523C54.6301 45.4647 54.6424 45.4925 54.6486 45.5358C54.661 45.5853 54.6734 45.6596 54.6858 45.7586C54.6981 45.8514 54.7105 45.9504 54.7229 46.0555C54.7352 46.1607 54.7414 46.2535 54.7414 46.334L54.7971 46.7052V49.8886C54.7971 49.9629 54.76 50 54.6858 50H53.804ZM63.092 50.1114C62.8569 50.1114 62.6372 50.0959 62.433 50.065C62.2351 50.0402 62.0309 50.0124 61.8205 49.9814C61.6163 49.9505 61.3874 49.9258 61.1337 49.9072V43.7724C61.1337 43.6982 61.1677 43.661 61.2358 43.661H62.1175C62.1917 43.661 62.2289 43.6982 62.2289 43.7724V49.109C62.3464 49.1338 62.4702 49.1554 62.6001 49.174C62.7362 49.1864 62.8631 49.1925 62.9806 49.1925C63.3148 49.1925 63.5622 49.1059 63.7231 48.9327C63.884 48.7532 63.9644 48.4872 63.9644 48.1345V47.1507C63.9644 46.8475 63.9118 46.6248 63.8066 46.4825C63.7015 46.3402 63.5375 46.269 63.3148 46.269C63.1353 46.269 62.9497 46.3216 62.7579 46.4268C62.5723 46.532 62.3402 46.7083 62.0618 46.9558L62.0896 46.0648C62.3619 45.805 62.628 45.6162 62.8878 45.4987C63.1477 45.3811 63.4168 45.3223 63.6953 45.3223C64.147 45.3223 64.4873 45.4585 64.7162 45.7307C64.9451 45.9968 65.0596 46.4082 65.0596 46.9651V48.2273C65.0596 48.8584 64.8987 49.3318 64.577 49.6473C64.2552 49.9567 63.7602 50.1114 63.092 50.1114ZM67.5751 50.1114C67.1668 50.1114 66.8574 49.9845 66.647 49.7308C66.4366 49.471 66.3315 49.0874 66.3315 48.58V45.5451C66.3315 45.4708 66.3655 45.4337 66.4336 45.4337H67.3153C67.3895 45.4337 67.4266 45.4708 67.4266 45.5451V48.4037C67.4266 48.6635 67.4699 48.8553 67.5566 48.9791C67.6494 49.1028 67.7917 49.1647 67.9835 49.1647C68.1877 49.1647 68.3919 49.0997 68.596 48.9698C68.8064 48.8337 69.0415 48.6326 69.3014 48.3665L69.3385 49.1833C69.1591 49.3627 68.9766 49.5236 68.7909 49.6659C68.6115 49.802 68.4197 49.9103 68.2155 49.9907C68.0175 50.0712 67.8041 50.1114 67.5751 50.1114ZM69.4128 50C69.3757 50 69.3447 49.9938 69.32 49.9814C69.3014 49.9629 69.289 49.935 69.2828 49.8979C69.2643 49.7865 69.2457 49.669 69.2272 49.5452C69.2148 49.4215 69.2055 49.2977 69.1993 49.174L69.1158 48.7007V45.5451C69.1158 45.4708 69.1529 45.4337 69.2272 45.4337H70.1089C70.1769 45.4337 70.2109 45.4708 70.2109 45.5451V48.8399C70.2109 49.0193 70.214 49.1987 70.2202 49.3782C70.2326 49.5514 70.2512 49.7216 70.2759 49.8886C70.2883 49.9629 70.2512 50 70.1645 50H69.4128ZM72.3168 51.717C72.2302 51.717 72.2054 51.6737 72.2426 51.5871L72.8644 49.9629L71.166 45.5636C71.135 45.477 71.1629 45.4337 71.2495 45.4337H72.2054C72.2673 45.4337 72.3075 45.4647 72.3261 45.5265L72.9943 47.4291C73.0624 47.621 73.1274 47.8251 73.1892 48.0417C73.2511 48.2521 73.3099 48.4655 73.3656 48.6821H73.3841C73.446 48.4655 73.5079 48.2521 73.5697 48.0417C73.6316 47.8313 73.6966 47.6271 73.7647 47.4291L74.4329 45.5265C74.4515 45.4647 74.4917 45.4337 74.5535 45.4337H75.4816C75.5188 45.4337 75.5466 45.4461 75.5652 45.4708C75.5837 45.4956 75.5868 45.5265 75.5745 45.5636L73.3006 51.6335C73.2758 51.6892 73.2356 51.717 73.1799 51.717H72.3168ZM81.2716 50C81.2345 50 81.2066 49.9907 81.1881 49.9722C81.1757 49.9474 81.1633 49.9165 81.1509 49.8793C81.1386 49.8175 81.1231 49.7123 81.1045 49.5638C81.086 49.4091 81.0705 49.2668 81.0581 49.1369L80.9932 48.7563V46.9001C80.9932 46.6403 80.9406 46.4577 80.8354 46.3525C80.7302 46.2412 80.5477 46.1855 80.2878 46.1855C79.8176 46.1855 79.5886 46.3556 79.601 46.6959C79.601 46.7702 79.567 46.8073 79.4989 46.8073H78.6636C78.5894 46.8073 78.5491 46.7516 78.543 46.6403C78.5058 46.2257 78.645 45.904 78.9606 45.675C79.2823 45.4399 79.7402 45.3223 80.3342 45.3223C80.9406 45.3223 81.383 45.4523 81.6614 45.7121C81.946 45.972 82.0883 46.3742 82.0883 46.9187V48.8491C82.0883 49.0471 82.0914 49.2328 82.0976 49.406C82.11 49.5793 82.1254 49.737 82.144 49.8793C82.1564 49.9598 82.1224 50 82.0419 50H81.2716ZM79.4989 50.1114C79.1277 50.1114 78.843 50 78.645 49.7773C78.447 49.5545 78.348 49.2359 78.348 48.8213C78.348 48.4996 78.4099 48.2397 78.5337 48.0417C78.6574 47.8375 78.8585 47.6797 79.1369 47.5684C79.4216 47.4508 79.799 47.3735 80.2692 47.3363L81.1324 47.2621V47.9303L80.362 47.9953C80.0032 48.0262 79.7557 48.0943 79.6196 48.1995C79.4834 48.3047 79.4154 48.4748 79.4154 48.7099C79.4154 48.8894 79.4525 49.0255 79.5267 49.1183C79.601 49.2049 79.7155 49.2482 79.8701 49.2482C80.0558 49.2482 80.2445 49.1895 80.4363 49.0719C80.6281 48.9481 80.8694 48.7316 81.1602 48.4222L81.1973 49.1647C81.0117 49.3689 80.8292 49.5421 80.6498 49.6844C80.4703 49.8268 80.2878 49.9319 80.1022 50C79.9166 50.0742 79.7155 50.1114 79.4989 50.1114ZM83.5539 50C83.4858 50 83.4518 49.9629 83.4518 49.8886V43.7724C83.4518 43.6982 83.4858 43.661 83.5539 43.661H84.4356C84.5098 43.661 84.5469 43.6982 84.5469 43.7724V49.8886C84.5469 49.9629 84.5098 50 84.4356 50H83.5539ZM86.0144 50C85.9464 50 85.9123 49.9629 85.9123 49.8886V43.7724C85.9123 43.6982 85.9464 43.661 86.0144 43.661H86.8961C86.9704 43.661 87.0075 43.6982 87.0075 43.7724V49.8886C87.0075 49.9629 86.9704 50 86.8961 50H86.0144ZM90.9078 50C90.8769 50 90.849 49.9907 90.8243 49.9722C90.8057 49.9474 90.7964 49.9196 90.7964 49.8886V46.3525H90.1096C90.0849 46.3525 90.0601 46.3433 90.0354 46.3247C90.0168 46.2999 90.0075 46.2721 90.0075 46.2412V45.5451C90.0075 45.508 90.0168 45.4801 90.0354 45.4616C90.0601 45.443 90.0849 45.4337 90.1096 45.4337H90.7964V45.0439C90.7964 44.5551 90.9356 44.1839 91.2141 43.9302C91.4925 43.6765 91.8854 43.5497 92.3928 43.5497C92.5784 43.5497 92.7578 43.5651 92.9311 43.5961C93.1043 43.6208 93.2435 43.6517 93.3487 43.6889C93.4477 43.7198 93.4972 43.7693 93.4972 43.8374V44.5056C93.4972 44.5489 93.4817 44.5799 93.4508 44.5984C93.4261 44.6108 93.3766 44.6015 93.3023 44.5706C93.2033 44.5335 93.0889 44.5025 92.9589 44.4778C92.829 44.453 92.7052 44.4406 92.5877 44.4406C92.3526 44.4406 92.1762 44.4963 92.0587 44.6077C91.9473 44.7191 91.8916 44.883 91.8916 45.0996V45.4337H93.0889C93.1631 45.4337 93.2002 45.4708 93.2002 45.5451V46.2412C93.2002 46.2721 93.1909 46.2999 93.1724 46.3247C93.1538 46.3433 93.126 46.3525 93.0889 46.3525H91.8916V49.8886C91.8916 49.9196 91.8823 49.9474 91.8637 49.9722C91.8452 49.9907 91.8173 50 91.7802 50H90.9078ZM95.868 50.1114C95.2122 50.1114 94.7048 49.9567 94.3459 49.6473C93.9932 49.3318 93.8169 48.8553 93.8169 48.218V47.2157C93.8169 46.5846 93.9932 46.1112 94.3459 45.7957C94.6986 45.4801 95.206 45.3223 95.868 45.3223C96.5239 45.3223 97.0282 45.4801 97.3808 45.7957C97.7335 46.1112 97.9099 46.5846 97.9099 47.2157V48.218C97.9099 48.8553 97.7335 49.3318 97.3808 49.6473C97.0343 49.9567 96.5301 50.1114 95.868 50.1114ZM95.868 49.174C96.2021 49.174 96.4435 49.0905 96.5919 48.9234C96.7404 48.7501 96.8147 48.481 96.8147 48.1159V47.3178C96.8147 46.9527 96.7404 46.6867 96.5919 46.5196C96.4435 46.3464 96.2021 46.2597 95.868 46.2597C95.5339 46.2597 95.2895 46.3464 95.1348 46.5196C94.9863 46.6867 94.9121 46.9527 94.9121 47.3178V48.1159C94.9121 48.481 94.9863 48.7501 95.1348 48.9234C95.2895 49.0905 95.5339 49.174 95.868 49.174ZM99.2646 50C99.1965 50 99.1625 49.9629 99.1625 49.8886V46.5753C99.1625 46.3897 99.1563 46.2133 99.144 46.0463C99.1378 45.8792 99.1223 45.7152 99.0975 45.5544C99.0852 45.4739 99.1223 45.4337 99.2089 45.4337H99.9885C100.026 45.4337 100.053 45.4399 100.072 45.4523C100.091 45.4647 100.103 45.4894 100.109 45.5265C100.134 45.6379 100.152 45.7647 100.165 45.907C100.177 46.0494 100.183 46.1762 100.183 46.2876L100.258 46.8259V49.8886C100.258 49.9629 100.221 50 100.146 50H99.2646ZM100.156 47.2342L100.1 46.2876C100.23 46.102 100.375 45.938 100.536 45.7957C100.703 45.6472 100.87 45.5327 101.037 45.4523C101.211 45.3657 101.368 45.3223 101.511 45.3223C101.616 45.3223 101.699 45.3316 101.761 45.3502C101.792 45.3626 101.814 45.378 101.826 45.3966C101.839 45.4152 101.845 45.4399 101.845 45.4708C101.857 45.6193 101.86 45.7802 101.854 45.9535C101.854 46.1205 101.845 46.2783 101.826 46.4268C101.82 46.4639 101.805 46.4918 101.78 46.5103C101.761 46.5227 101.73 46.5258 101.687 46.5196C101.65 46.5134 101.603 46.5072 101.548 46.501C101.492 46.4948 101.433 46.4918 101.371 46.4918C101.235 46.4918 101.093 46.5227 100.944 46.5846C100.802 46.6403 100.663 46.7238 100.527 46.8352C100.397 46.9465 100.273 47.0796 100.156 47.2342ZM141.075 50C141.038 50 141.01 49.9907 140.991 49.9722C140.979 49.9474 140.966 49.9165 140.954 49.8793C140.942 49.8175 140.926 49.7123 140.908 49.5638C140.889 49.4091 140.874 49.2668 140.861 49.1369L140.796 48.7563V46.9001C140.796 46.6403 140.744 46.4577 140.638 46.3525C140.533 46.2412 140.351 46.1855 140.091 46.1855C139.621 46.1855 139.392 46.3556 139.404 46.6959C139.404 46.7702 139.37 46.8073 139.302 46.8073H138.467C138.392 46.8073 138.352 46.7516 138.346 46.6403C138.309 46.2257 138.448 45.904 138.764 45.675C139.085 45.4399 139.543 45.3223 140.137 45.3223C140.744 45.3223 141.186 45.4523 141.464 45.7121C141.749 45.972 141.891 46.3742 141.891 46.9187V48.8491C141.891 49.0471 141.894 49.2328 141.901 49.406C141.913 49.5793 141.929 49.737 141.947 49.8793C141.959 49.9598 141.925 50 141.845 50H141.075ZM139.302 50.1114C138.931 50.1114 138.646 50 138.448 49.7773C138.25 49.5545 138.151 49.2359 138.151 48.8213C138.151 48.4996 138.213 48.2397 138.337 48.0417C138.46 47.8375 138.662 47.6797 138.94 47.5684C139.225 47.4508 139.602 47.3735 140.072 47.3363L140.935 47.2621V47.9303L140.165 47.9953C139.806 48.0262 139.559 48.0943 139.423 48.1995C139.287 48.3047 139.218 48.4748 139.218 48.7099C139.218 48.8894 139.256 49.0255 139.33 49.1183C139.404 49.2049 139.519 49.2482 139.673 49.2482C139.859 49.2482 140.048 49.1895 140.239 49.0719C140.431 48.9481 140.672 48.7316 140.963 48.4222L141 49.1647C140.815 49.3689 140.632 49.5421 140.453 49.6844C140.273 49.8268 140.091 49.9319 139.905 50C139.72 50.0742 139.519 50.1114 139.302 50.1114ZM145.055 50.1114C144.696 50.1114 144.409 50.0557 144.192 49.9443C143.982 49.8329 143.827 49.6597 143.728 49.4246C143.635 49.1895 143.589 48.8894 143.589 48.5243V46.3525H142.911C142.837 46.3525 142.8 46.3154 142.8 46.2412V45.5451C142.8 45.4708 142.837 45.4337 142.911 45.4337H143.626L143.747 44.32C143.759 44.2519 143.799 44.2179 143.867 44.2179H144.573C144.647 44.2179 144.684 44.255 144.684 44.3293V45.4337H145.956C146.03 45.4337 146.067 45.4708 146.067 45.5451V46.2412C146.067 46.3154 146.03 46.3525 145.956 46.3525H144.684V48.4686C144.684 48.7161 144.731 48.8956 144.823 49.0069C144.916 49.1183 145.071 49.174 145.287 49.174C145.399 49.174 145.51 49.1616 145.622 49.1369C145.739 49.1121 145.847 49.0781 145.946 49.0348C145.983 49.0224 146.014 49.0255 146.039 49.044C146.064 49.0564 146.076 49.0812 146.076 49.1183V49.8329C146.076 49.8948 146.048 49.935 145.993 49.9536C145.869 50.0031 145.727 50.0402 145.566 50.065C145.411 50.0959 145.241 50.1114 145.055 50.1114ZM150.741 50C150.673 50 150.639 49.9629 150.639 49.8886V47.9025L148.653 44.0508C148.635 44.0137 148.632 43.9828 148.644 43.958C148.663 43.9333 148.69 43.9209 148.727 43.9209H149.748C149.816 43.9209 149.86 43.9456 149.878 43.9951L150.704 45.7493C150.791 45.9349 150.874 46.1205 150.955 46.3061C151.042 46.4918 151.122 46.6743 151.196 46.8537H151.206C151.286 46.6681 151.366 46.4856 151.447 46.3061C151.533 46.1205 151.62 45.9318 151.707 45.74L152.523 43.9951C152.548 43.9456 152.591 43.9209 152.653 43.9209H153.656C153.693 43.9209 153.718 43.9333 153.73 43.958C153.749 43.9828 153.749 44.0137 153.73 44.0508L151.753 47.9025V49.8886C151.753 49.9629 151.716 50 151.642 50H150.741ZM156.718 50C156.68 50 156.653 49.9907 156.634 49.9722C156.622 49.9474 156.609 49.9165 156.597 49.8793C156.585 49.8175 156.569 49.7123 156.551 49.5638C156.532 49.4091 156.517 49.2668 156.504 49.1369L156.439 48.7563V46.9001C156.439 46.6403 156.387 46.4577 156.281 46.3525C156.176 46.2412 155.994 46.1855 155.734 46.1855C155.264 46.1855 155.035 46.3556 155.047 46.6959C155.047 46.7702 155.013 46.8073 154.945 46.8073H154.11C154.035 46.8073 153.995 46.7516 153.989 46.6403C153.952 46.2257 154.091 45.904 154.407 45.675C154.728 45.4399 155.186 45.3223 155.78 45.3223C156.387 45.3223 156.829 45.4523 157.107 45.7121C157.392 45.972 157.534 46.3742 157.534 46.9187V48.8491C157.534 49.0471 157.537 49.2328 157.544 49.406C157.556 49.5793 157.571 49.737 157.59 49.8793C157.602 49.9598 157.568 50 157.488 50H156.718ZM154.945 50.1114C154.574 50.1114 154.289 50 154.091 49.7773C153.893 49.5545 153.794 49.2359 153.794 48.8213C153.794 48.4996 153.856 48.2397 153.98 48.0417C154.103 47.8375 154.305 47.6797 154.583 47.5684C154.868 47.4508 155.245 47.3735 155.715 47.3363L156.578 47.2621V47.9303L155.808 47.9953C155.449 48.0262 155.202 48.0943 155.066 48.1995C154.929 48.3047 154.861 48.4748 154.861 48.7099C154.861 48.8894 154.899 49.0255 154.973 49.1183C155.047 49.2049 155.161 49.2482 155.316 49.2482C155.502 49.2482 155.691 49.1895 155.882 49.0719C156.074 48.9481 156.315 48.7316 156.606 48.4222L156.643 49.1647C156.458 49.3689 156.275 49.5421 156.096 49.6844C155.916 49.8268 155.734 49.9319 155.548 50C155.363 50.0742 155.161 50.1114 154.945 50.1114ZM160.856 50.1114C160.621 50.1114 160.401 50.0959 160.197 50.065C159.999 50.0402 159.795 50.0124 159.585 49.9814C159.38 49.9505 159.151 49.9258 158.898 49.9072V43.7724C158.898 43.6982 158.932 43.661 159 43.661H159.882C159.956 43.661 159.993 43.6982 159.993 43.7724V49.109C160.111 49.1338 160.234 49.1554 160.364 49.174C160.5 49.1864 160.627 49.1925 160.745 49.1925C161.079 49.1925 161.326 49.1059 161.487 48.9327C161.648 48.7532 161.729 48.4872 161.729 48.1345V47.1507C161.729 46.8475 161.676 46.6248 161.571 46.4825C161.466 46.3402 161.302 46.269 161.079 46.269C160.899 46.269 160.714 46.3216 160.522 46.4268C160.336 46.532 160.104 46.7083 159.826 46.9558L159.854 46.0648C160.126 45.805 160.392 45.6162 160.652 45.4987C160.912 45.3811 161.181 45.3223 161.459 45.3223C161.911 45.3223 162.251 45.4585 162.48 45.7307C162.709 45.9968 162.824 46.4082 162.824 46.9651V48.2273C162.824 48.8584 162.663 49.3318 162.341 49.6473C162.019 49.9567 161.524 50.1114 160.856 50.1114ZM166.778 50C166.741 50 166.713 49.9907 166.694 49.9722C166.682 49.9474 166.669 49.9165 166.657 49.8793C166.645 49.8175 166.629 49.7123 166.611 49.5638C166.592 49.4091 166.577 49.2668 166.564 49.1369L166.499 48.7563V46.9001C166.499 46.6403 166.447 46.4577 166.342 46.3525C166.236 46.2412 166.054 46.1855 165.794 46.1855C165.324 46.1855 165.095 46.3556 165.107 46.6959C165.107 46.7702 165.073 46.8073 165.005 46.8073H164.17C164.096 46.8073 164.055 46.7516 164.049 46.6403C164.012 46.2257 164.151 45.904 164.467 45.675C164.789 45.4399 165.246 45.3223 165.84 45.3223C166.447 45.3223 166.889 45.4523 167.168 45.7121C167.452 45.972 167.595 46.3742 167.595 46.9187V48.8491C167.595 49.0471 167.598 49.2328 167.604 49.406C167.616 49.5793 167.632 49.737 167.65 49.8793C167.663 49.9598 167.629 50 167.548 50H166.778ZM165.005 50.1114C164.634 50.1114 164.349 50 164.151 49.7773C163.953 49.5545 163.854 49.2359 163.854 48.8213C163.854 48.4996 163.916 48.2397 164.04 48.0417C164.164 47.8375 164.365 47.6797 164.643 47.5684C164.928 47.4508 165.305 47.3735 165.775 47.3363L166.639 47.2621V47.9303L165.868 47.9953C165.509 48.0262 165.262 48.0943 165.126 48.1995C164.99 48.3047 164.922 48.4748 164.922 48.7099C164.922 48.8894 164.959 49.0255 165.033 49.1183C165.107 49.2049 165.222 49.2482 165.376 49.2482C165.562 49.2482 165.751 49.1895 165.942 49.0719C166.134 48.9481 166.376 48.7316 166.666 48.4222L166.704 49.1647C166.518 49.3689 166.335 49.5421 166.156 49.6844C165.977 49.8268 165.794 49.9319 165.608 50C165.423 50.0742 165.222 50.1114 165.005 50.1114Z" fill="white"/>
<path d="M104.948 50C104.868 50 104.827 49.9598 104.827 49.8793V44.0416C104.827 43.9611 104.868 43.9209 104.948 43.9209H106.424C106.486 43.9209 106.532 43.9487 106.563 44.0044L107.89 46.6774C107.983 46.8692 108.076 47.0641 108.168 47.2621C108.261 47.4539 108.345 47.6395 108.419 47.8189C108.5 47.9984 108.564 48.1654 108.614 48.3201H108.642C108.629 48.1964 108.62 48.0634 108.614 47.921C108.608 47.7725 108.602 47.624 108.595 47.4755C108.589 47.3209 108.583 47.1724 108.577 47.0301C108.577 46.8816 108.577 46.7454 108.577 46.6217V44.0416C108.577 43.9611 108.614 43.9209 108.688 43.9209H109.737C109.817 43.9209 109.858 43.9611 109.858 44.0416V49.8793C109.858 49.9598 109.817 50 109.737 50H108.28C108.212 50 108.165 49.9722 108.141 49.9165L106.851 47.3549C106.764 47.1755 106.677 46.9867 106.591 46.7888C106.504 46.5846 106.417 46.3866 106.331 46.1948C106.25 45.9968 106.176 45.8142 106.108 45.6472H106.08C106.086 45.7833 106.09 45.9287 106.09 46.0834C106.096 46.2319 106.099 46.3835 106.099 46.5382C106.105 46.6867 106.108 46.8352 106.108 46.9837C106.108 47.1321 106.108 47.2776 106.108 47.4199V49.8793C106.108 49.9598 106.068 50 105.987 50H104.948ZM111.239 50C111.158 50 111.118 49.9598 111.118 49.8793V49.0905C111.118 48.7996 111.171 48.5429 111.276 48.3201C111.387 48.0912 111.53 47.887 111.703 47.7076C111.882 47.5281 112.077 47.3673 112.288 47.225C112.498 47.0765 112.708 46.9403 112.919 46.8166C113.135 46.6867 113.33 46.5629 113.504 46.4454C113.683 46.3216 113.825 46.1948 113.93 46.0648C114.042 45.9287 114.097 45.7802 114.097 45.6193V45.4708C114.097 45.279 114.029 45.1367 113.893 45.0439C113.763 44.9511 113.556 44.9047 113.271 44.9047C112.993 44.9047 112.786 44.9635 112.65 45.081C112.514 45.1924 112.449 45.3533 112.455 45.5636C112.455 45.6441 112.415 45.6843 112.334 45.6843H111.341C111.273 45.6843 111.233 45.6441 111.22 45.5636C111.208 45.1738 111.285 44.849 111.452 44.5891C111.619 44.3293 111.864 44.1344 112.186 44.0044C112.514 43.8745 112.9 43.8095 113.346 43.8095C114.026 43.8095 114.537 43.9456 114.877 44.2179C115.224 44.484 115.397 44.8985 115.397 45.4616C115.397 45.7586 115.344 46.0184 115.239 46.2412C115.14 46.4639 115.004 46.6588 114.831 46.8259C114.664 46.9929 114.478 47.1445 114.274 47.2806C114.07 47.4106 113.865 47.5343 113.661 47.6519C113.463 47.7633 113.278 47.8808 113.104 48.0046C112.937 48.1221 112.801 48.2521 112.696 48.3944C112.597 48.5367 112.548 48.7007 112.548 48.8863H115.248C115.329 48.8863 115.369 48.9265 115.369 49.0069V49.8793C115.369 49.9598 115.329 50 115.248 50H111.239ZM116.349 51.3643C116.263 51.3643 116.229 51.3179 116.247 51.2251L116.73 48.6264C116.742 48.5522 116.782 48.515 116.85 48.515H118.113C118.156 48.515 118.187 48.5305 118.205 48.5614C118.23 48.5924 118.233 48.6295 118.215 48.6728L117.389 51.2622C117.37 51.3303 117.327 51.3643 117.259 51.3643H116.349ZM121.251 50.1114C120.775 50.1114 120.379 50.0371 120.063 49.8886C119.748 49.7401 119.516 49.5359 119.367 49.2761C119.219 49.01 119.157 48.7037 119.182 48.3573C119.182 48.3201 119.191 48.2923 119.209 48.2737C119.234 48.249 119.265 48.2366 119.302 48.2366H120.295C120.376 48.2366 120.416 48.2768 120.416 48.3573C120.416 48.5429 120.487 48.6976 120.629 48.8213C120.772 48.9389 120.995 48.9976 121.298 48.9976C121.663 48.9976 121.92 48.9296 122.068 48.7935C122.223 48.6512 122.3 48.4377 122.3 48.1531V47.9674C122.3 47.7818 122.266 47.6271 122.198 47.5034C122.13 47.3735 122.019 47.2745 121.864 47.2064C121.715 47.1383 121.52 47.1043 121.279 47.1043C121.019 47.1043 120.735 47.1352 120.425 47.1971C120.122 47.2528 119.837 47.324 119.571 47.4106C119.491 47.4353 119.432 47.4353 119.395 47.4106C119.364 47.3858 119.352 47.3394 119.358 47.2714L119.646 44.0416C119.652 43.9611 119.692 43.9209 119.766 43.9209H123.08C123.16 43.9209 123.2 43.9611 123.2 44.0416V44.914C123.2 44.9944 123.16 45.0346 123.08 45.0346H120.741L120.639 46.2133C120.843 46.1638 121.032 46.1298 121.205 46.1112C121.384 46.0865 121.561 46.0741 121.734 46.0741C122.34 46.0741 122.801 46.235 123.117 46.5567C123.439 46.8723 123.599 47.3611 123.599 48.0231C123.599 48.7409 123.401 49.2699 123.005 49.6102C122.616 49.9443 122.031 50.1114 121.251 50.1114ZM126.966 50.1114C126.217 50.1114 125.645 49.9165 125.249 49.5267C124.853 49.1307 124.655 48.5676 124.655 47.8375V46.0834C124.655 45.3533 124.853 44.7933 125.249 44.4035C125.645 44.0075 126.217 43.8095 126.966 43.8095C127.72 43.8095 128.296 44.0075 128.692 44.4035C129.088 44.7933 129.286 45.3533 129.286 46.0834V47.8375C129.286 48.5676 129.088 49.1307 128.692 49.5267C128.296 49.9165 127.72 50.1114 126.966 50.1114ZM126.966 48.9884C127.293 48.9884 127.544 48.8925 127.717 48.7007C127.897 48.5027 127.986 48.2149 127.986 47.8375V46.0834C127.986 45.706 127.897 45.4213 127.717 45.2295C127.544 45.0315 127.293 44.9325 126.966 44.9325C126.638 44.9325 126.387 45.0315 126.214 45.2295C126.041 45.4213 125.954 45.706 125.954 46.0834V47.8375C125.954 48.2149 126.041 48.5027 126.214 48.7007C126.387 48.8925 126.638 48.9884 126.966 48.9884ZM132.743 50.1114C131.995 50.1114 131.422 49.9165 131.026 49.5267C130.63 49.1307 130.432 48.5676 130.432 47.8375V46.0834C130.432 45.3533 130.63 44.7933 131.026 44.4035C131.422 44.0075 131.995 43.8095 132.743 43.8095C133.498 43.8095 134.074 44.0075 134.47 44.4035C134.866 44.7933 135.064 45.3533 135.064 46.0834V47.8375C135.064 48.5676 134.866 49.1307 134.47 49.5267C134.074 49.9165 133.498 50.1114 132.743 50.1114ZM132.743 48.9884C133.071 48.9884 133.322 48.8925 133.495 48.7007C133.675 48.5027 133.764 48.2149 133.764 47.8375V46.0834C133.764 45.706 133.675 45.4213 133.495 45.2295C133.322 45.0315 133.071 44.9325 132.743 44.9325C132.415 44.9325 132.165 45.0315 131.992 45.2295C131.818 45.4213 131.732 45.706 131.732 46.0834V47.8375C131.732 48.2149 131.818 48.5027 131.992 48.7007C132.165 48.8925 132.415 48.9884 132.743 48.9884Z" fill="#01FFC2"/>
<path d="M104.215 47.2806H110.656V47.7447H104.215V47.2806Z" fill="#01FFC2"/>
<defs>
<filter id="filter0_d_1_3045" x="0" y="0" width="193" height="91" filterUnits="userSpaceOnUse" color-interpolation-filters="sRGB">
<feFlood flood-opacity="0" result="BackgroundImageFix"/>
<feColorMatrix in="SourceAlpha" type="matrix" values="0 0 0 0 0 0 0 0 0 0 0 0 0 0 0 0 0 0 127 0" result="hardAlpha"/>
<feOffset dy="12"/>
<feGaussianBlur stdDeviation="8"/>
<feComposite in2="hardAlpha" operator="out"/>
<feColorMatrix type="matrix" values="0 0 0 0 0 0 0 0 0 0 0 0 0 0 0 0 0 0 0.16 0"/>
<feBlend mode="normal" in2="BackgroundImageFix" result="effect1_dropShadow_1_3045"/>
<feBlend mode="normal" in="SourceGraphic" in2="effect1_dropShadow_1_3045" result="shape"/>
</filter>
</defs>
</svg>
